@startuml

hide empty fields
hide empty methods
legend
|= |= line |
|<back:black>   </back>| inheritance |
|<back:green>   </back>| property reference |
|<back:blue>   </back>| discriminated class |
endlegend
interface AgentResponsesSuccess [[AgentResponsesSuccess.svg]]  {
    entityType: [[AgentResponsesOutputType.svg AgentResponsesOutputType]]
    warnings: [[WarningObject.svg List<WarningObject>]]
    threadId: String
}


interface AgentResponsesCartSuccess [[AgentResponsesCartSuccess.svg]]  {
    entityType: [[AgentResponsesOutputType.svg AgentResponsesOutputType]]
    warnings: [[WarningObject.svg List<WarningObject>]]
    threadId: String
    entity: [[Cart.svg Cart]]
}
interface AgentResponsesQuoteRequestSuccess [[AgentResponsesQuoteRequestSuccess.svg]]  {
    entityType: [[AgentResponsesOutputType.svg AgentResponsesOutputType]]
    warnings: [[WarningObject.svg List<WarningObject>]]
    threadId: String
    entity: [[QuoteRequest.svg QuoteRequest]]
    cartId: String
}

AgentResponsesSuccess --> AgentResponsesCartSuccess #blue;text:blue : "entityType : Cart"
AgentResponsesSuccess --> AgentResponsesQuoteRequestSuccess #blue;text:blue : "entityType : QuoteRequest"

@enduml
