@startuml

hide empty fields
hide empty methods
legend
|= |= line |
|<back:black>   </back>| inheritance |
|<back:green>   </back>| property reference |
|<back:blue>   </back>| discriminated class |
endlegend
interface ApprovalFlow [[ApprovalFlow.svg]] extends BaseResource {
    id: String
    version: Long
    createdAt: DateTime
    lastModifiedAt: DateTime
    createdBy: [[CreatedBy.svg CreatedBy]]
    lastModifiedBy: [[LastModifiedBy.svg LastModifiedBy]]
    order: [[OrderReference.svg OrderReference]]
    businessUnit: [[BusinessUnitKeyReference.svg BusinessUnitKeyReference]]
    rules: [[ApprovalRule.svg List<ApprovalRule>]]
    status: [[ApprovalFlowStatus.svg ApprovalFlowStatus]]
    rejection: [[ApprovalFlowRejection.svg ApprovalFlowRejection]]
    approvals: [[ApprovalFlowApproval.svg List<ApprovalFlowApproval>]]
    eligibleApprovers: [[RuleApprover.svg List<RuleApprover>]]
    pendingApprovers: [[RuleApprover.svg List<RuleApprover>]]
    currentTierPendingApprovers: [[RuleApprover.svg List<RuleApprover>]]
    custom: [[CustomFields.svg CustomFields]]
}
interface BaseResource [[BaseResource.svg]]  {
    id: String
    version: Long
    createdAt: DateTime
    lastModifiedAt: DateTime
}


interface ApprovalFlowPagedQueryResponse [[ApprovalFlowPagedQueryResponse.svg]]  {
    limit: Long
    offset: Long
    count: Long
    total: Long
    results: [[ApprovalFlow.svg List<ApprovalFlow>]]
}
interface ApprovalFlowCreatedMessage [[ApprovalFlowCreatedMessage.svg]]  {
    id: String
    version: Long
    createdAt: DateTime
    lastModifiedAt: DateTime
    lastModifiedBy: [[LastModifiedBy.svg LastModifiedBy]]
    createdBy: [[CreatedBy.svg CreatedBy]]
    sequenceNumber: Long
    resource: [[Reference.svg Reference]]
    resourceVersion: Long
    type: String
    resourceUserProvidedIdentifiers: [[UserProvidedIdentifiers.svg UserProvidedIdentifiers]]
    approvalFlow: [[ApprovalFlow.svg ApprovalFlow]]
}
interface ApprovalFlowCreatedMessagePayload [[ApprovalFlowCreatedMessagePayload.svg]]  {
    type: String
    approvalFlow: [[ApprovalFlow.svg ApprovalFlow]]
}

ApprovalFlow --> ApprovalFlowPagedQueryResponse #green;text:green : "results"
ApprovalFlow --> ApprovalFlowCreatedMessage #green;text:green : "approvalFlow"
ApprovalFlow --> ApprovalFlowCreatedMessagePayload #green;text:green : "approvalFlow"
@enduml
