@startuml

hide empty fields
hide empty methods
legend
|= |= line |
|<back:black>   </back>| inheritance |
|<back:green>   </back>| property reference |
|<back:blue>   </back>| discriminated class |
endlegend
interface AttributeGroup [[AttributeGroup.svg]] extends BaseResource {
    id: String
    version: Long
    createdAt: DateTime
    lastModifiedAt: DateTime
    lastModifiedBy: [[LastModifiedBy.svg LastModifiedBy]]
    createdBy: [[CreatedBy.svg CreatedBy]]
    name: [[LocalizedString.svg LocalizedString]]
    description: [[LocalizedString.svg LocalizedString]]
    attributes: [[AttributeReference.svg List<AttributeReference>]]
    key: String
}
interface BaseResource [[BaseResource.svg]]  {
    id: String
    version: Long
    createdAt: DateTime
    lastModifiedAt: DateTime
}


interface AttributeGroupPagedQueryResponse [[AttributeGroupPagedQueryResponse.svg]]  {
    limit: Long
    offset: Long
    count: Long
    total: Long
    results: [[AttributeGroup.svg List<AttributeGroup>]]
}
interface AttributeGroupReference [[AttributeGroupReference.svg]]  {
    typeId: [[ReferenceTypeId.svg ReferenceTypeId]]
    id: String
    obj: [[AttributeGroup.svg AttributeGroup]]
}

AttributeGroup --> AttributeGroupPagedQueryResponse #green;text:green : "results"
AttributeGroup --> AttributeGroupReference #green;text:green : "obj"
@enduml
