@startuml

hide empty fields
hide empty methods
legend
|= |= line |
|<back:black>   </back>| inheritance |
|<back:green>   </back>| property reference |
|<back:blue>   </back>| discriminated class |
endlegend
interface AttributeDefinition [[AttributeDefinition.svg]]  {
    type: [[AttributeType.svg AttributeType]]
    name: String
    label: [[LocalizedString.svg LocalizedString]]
    isRequired: Boolean
    level: [[AttributeLevelEnum.svg AttributeLevelEnum]]
    attributeConstraint: [[AttributeConstraintEnum.svg AttributeConstraintEnum]]
    inputTip: [[LocalizedString.svg LocalizedString]]
    inputHint: [[TextInputHint.svg TextInputHint]]
    isSearchable: Boolean
}



interface ProductType [[ProductType.svg]]  {
    id: String
    version: Long
    createdAt: DateTime
    lastModifiedAt: DateTime
    lastModifiedBy: [[LastModifiedBy.svg LastModifiedBy]]
    createdBy: [[CreatedBy.svg CreatedBy]]
    key: String
    name: String
    description: String
    attributes: [[AttributeDefinition.svg List<AttributeDefinition>]]
}
interface ProductTypeChangeAttributeOrderAction [[ProductTypeChangeAttributeOrderAction.svg]]  {
    action: String
    attributes: [[AttributeDefinition.svg List<AttributeDefinition>]]
}

AttributeDefinition --> ProductType #green;text:green : "attributes"
AttributeDefinition --> ProductTypeChangeAttributeOrderAction #green;text:green : "attributes"
AttributeDefinition --> ProductTypeChangeAttributeOrderAction #green;text:green : "attributes"
@enduml
