@startuml

hide empty fields
hide empty methods
legend
|= |= line |
|<back:black>   </back>| inheritance |
|<back:green>   </back>| property reference |
|<back:blue>   </back>| discriminated class |
endlegend
interface Attribute [[Attribute.svg]]  {
    name: String
    value: [[Object.svg Object]]
}



interface DuplicateAttributeValuesError [[DuplicateAttributeValuesError.svg]]  {
    code: String
    message: String
    attributes: [[Attribute.svg List<Attribute>]]
}
interface VariantValues [[VariantValues.svg]]  {
    sku: String
    prices: [[PriceDraft.svg List<PriceDraft>]]
    attributes: [[Attribute.svg List<Attribute>]]
}
interface GraphQLDuplicateAttributeValuesError [[GraphQLDuplicateAttributeValuesError.svg]]  {
    code: String
    attributes: [[Attribute.svg List<Attribute>]]
}
interface VariantCreatedMessage [[VariantCreatedMessage.svg]]  {
    id: String
    version: Long
    createdAt: DateTime
    lastModifiedAt: DateTime
    lastModifiedBy: [[LastModifiedBy.svg LastModifiedBy]]
    createdBy: [[CreatedBy.svg CreatedBy]]
    sequenceNumber: Long
    resource: [[Reference.svg Reference]]
    resourceVersion: Long
    type: String
    resourceUserProvidedIdentifiers: [[UserProvidedIdentifiers.svg UserProvidedIdentifiers]]
    product: [[ProductReference.svg ProductReference]]
    variantId: Integer
    key: String
    sku: String
    attributes: [[Attribute.svg List<Attribute>]]
    assets: [[Asset.svg List<Asset>]]
    images: [[Image.svg List<Image>]]
    publish: Boolean
}
interface VariantCreatedMessagePayload [[VariantCreatedMessagePayload.svg]]  {
    type: String
    product: [[ProductReference.svg ProductReference]]
    id: String
    variantId: Integer
    key: String
    sku: String
    attributes: [[Attribute.svg List<Attribute>]]
    assets: [[Asset.svg List<Asset>]]
    images: [[Image.svg List<Image>]]
    publish: Boolean
}
interface ProductVariantImportDraft [[ProductVariantImportDraft.svg]]  {
    id: Long
    sku: String
    prices: [[PriceDraft.svg List<PriceDraft>]]
    attributes: [[Attribute.svg List<Attribute>]]
    images: [[Image.svg List<Image>]]
}
interface ProductData [[ProductData.svg]]  {
    name: [[LocalizedString.svg LocalizedString]]
    categories: [[CategoryReference.svg List<CategoryReference>]]
    categoryOrderHints: [[CategoryOrderHints.svg CategoryOrderHints]]
    description: [[LocalizedString.svg LocalizedString]]
    slug: [[LocalizedString.svg LocalizedString]]
    metaTitle: [[LocalizedString.svg LocalizedString]]
    metaDescription: [[LocalizedString.svg LocalizedString]]
    metaKeywords: [[LocalizedString.svg LocalizedString]]
    masterVariant: [[ProductVariant.svg ProductVariant]]
    variants: [[ProductVariant.svg List<ProductVariant>]]
    searchKeywords: [[SearchKeywords.svg SearchKeywords]]
    attributes: [[Attribute.svg List<Attribute>]]
    defaultVariant: [[VariantReference.svg VariantReference]]
}
interface ProductDraft [[ProductDraft.svg]]  {
    productType: [[ProductTypeResourceIdentifier.svg ProductTypeResourceIdentifier]]
    name: [[LocalizedString.svg LocalizedString]]
    slug: [[LocalizedString.svg LocalizedString]]
    key: String
    description: [[LocalizedString.svg LocalizedString]]
    categories: [[CategoryResourceIdentifier.svg List<CategoryResourceIdentifier>]]
    categoryOrderHints: [[CategoryOrderHints.svg CategoryOrderHints]]
    metaTitle: [[LocalizedString.svg LocalizedString]]
    metaDescription: [[LocalizedString.svg LocalizedString]]
    metaKeywords: [[LocalizedString.svg LocalizedString]]
    masterVariant: [[ProductVariantDraft.svg ProductVariantDraft]]
    variants: [[ProductVariantDraft.svg List<ProductVariantDraft>]]
    taxCategory: [[TaxCategoryResourceIdentifier.svg TaxCategoryResourceIdentifier]]
    searchKeywords: [[SearchKeywords.svg SearchKeywords]]
    state: [[StateResourceIdentifier.svg StateResourceIdentifier]]
    publish: Boolean
    priceMode: [[ProductPriceModeEnum.svg ProductPriceModeEnum]]
    attributes: [[Attribute.svg List<Attribute>]]
}
interface ProductProjection [[ProductProjection.svg]]  {
    id: String
    version: Long
    createdAt: DateTime
    lastModifiedAt: DateTime
    key: String
    productType: [[ProductTypeReference.svg ProductTypeReference]]
    name: [[LocalizedString.svg LocalizedString]]
    description: [[LocalizedString.svg LocalizedString]]
    slug: [[LocalizedString.svg LocalizedString]]
    categories: [[CategoryReference.svg List<CategoryReference>]]
    categoryOrderHints: [[CategoryOrderHints.svg CategoryOrderHints]]
    metaTitle: [[LocalizedString.svg LocalizedString]]
    metaDescription: [[LocalizedString.svg LocalizedString]]
    metaKeywords: [[LocalizedString.svg LocalizedString]]
    searchKeywords: [[SearchKeywords.svg SearchKeywords]]
    hasStagedChanges: Boolean
    published: Boolean
    masterVariant: [[ProductVariant.svg ProductVariant]]
    variants: [[ProductVariant.svg List<ProductVariant>]]
    taxCategory: [[TaxCategoryReference.svg TaxCategoryReference]]
    state: [[StateReference.svg StateReference]]
    reviewRatingStatistics: [[ReviewRatingStatistics.svg ReviewRatingStatistics]]
    priceMode: [[ProductPriceModeEnum.svg ProductPriceModeEnum]]
    attributes: [[Attribute.svg List<Attribute>]]
}
interface ProductVariant [[ProductVariant.svg]]  {
    id: Long
    sku: String
    key: String
    prices: [[Price.svg List<Price>]]
    attributes: [[Attribute.svg List<Attribute>]]
    price: [[Price.svg Price]]
    images: [[Image.svg List<Image>]]
    assets: [[Asset.svg List<Asset>]]
    availability: [[ProductVariantAvailability.svg ProductVariantAvailability]]
    isMatchingVariant: Boolean
    scopedPrice: [[ScopedPrice.svg ScopedPrice]]
    scopedPriceDiscounted: Boolean
    recurrencePrices: [[Price.svg List<Price>]]
}
interface ProductVariantDraft [[ProductVariantDraft.svg]]  {
    sku: String
    key: String
    prices: [[PriceDraft.svg List<PriceDraft>]]
    attributes: [[Attribute.svg List<Attribute>]]
    images: [[Image.svg List<Image>]]
    assets: [[AssetDraft.svg List<AssetDraft>]]
}
interface ProductAddVariantAction [[ProductAddVariantAction.svg]]  {
    action: String
    sku: String
    key: String
    prices: [[PriceDraft.svg List<PriceDraft>]]
    images: [[Image.svg List<Image>]]
    attributes: [[Attribute.svg List<Attribute>]]
    staged: Boolean
    assets: [[AssetDraft.svg List<AssetDraft>]]
}
interface VariantData [[VariantData.svg]]  {
    sku: String
    images: [[Image.svg List<Image>]]
    attributes: [[Attribute.svg List<Attribute>]]
    assets: [[Asset.svg List<Asset>]]
}
interface VariantDraft [[VariantDraft.svg]]  {
    key: String
    sku: String
    product: [[ProductResourceIdentifier.svg ProductResourceIdentifier]]
    publish: Boolean
    images: [[Image.svg List<Image>]]
    attributes: [[Attribute.svg List<Attribute>]]
    assets: [[AssetDraft.svg List<AssetDraft>]]
}
interface VariantProjection [[VariantProjection.svg]]  {
    id: String
    version: Long
    createdAt: DateTime
    staged: Boolean
    variantId: Integer
    product: [[ProductReference.svg ProductReference]]
    name: [[LocalizedString.svg LocalizedString]]
    slug: [[LocalizedString.svg LocalizedString]]
    description: [[LocalizedString.svg LocalizedString]]
    categories: [[CategoryReference.svg List<CategoryReference>]]
    categoryOrderHints: [[CategoryOrderHints.svg CategoryOrderHints]]
    key: String
    sku: String
    images: [[Image.svg List<Image>]]
    assets: [[Asset.svg List<Asset>]]
    attributes: [[Attribute.svg List<Attribute>]]
    price: [[Price.svg Price]]
    default: Boolean
}
interface VariantSetAttributesAction [[VariantSetAttributesAction.svg]]  {
    action: String
    attributes: [[Attribute.svg List<Attribute>]]
    staged: Boolean
}
interface DuplicateAttributeValueError [[DuplicateAttributeValueError.svg]]  {
    code: String
    message: String
    attribute: [[Attribute.svg Attribute]]
}
interface GraphQLDuplicateAttributeValueError [[GraphQLDuplicateAttributeValueError.svg]]  {
    code: String
    attribute: [[Attribute.svg Attribute]]
}
interface VariantAttributesVariant [[VariantAttributesVariant.svg]]  {
    id: String
    sku: String
    key: String
    availability: [[VariantAttributesAvailability.svg VariantAttributesAvailability]]
    attributes: [[Attribute.svg List<Attribute>]]
}

Attribute --> DuplicateAttributeValuesError #green;text:green : "attributes"
Attribute --> VariantValues #green;text:green : "attributes"
Attribute --> GraphQLDuplicateAttributeValuesError #green;text:green : "attributes"
Attribute --> VariantCreatedMessage #green;text:green : "attributes"
Attribute --> VariantCreatedMessagePayload #green;text:green : "attributes"
Attribute --> ProductVariantImportDraft #green;text:green : "attributes"
Attribute --> ProductData #green;text:green : "attributes"
Attribute --> ProductDraft #green;text:green : "attributes"
Attribute --> ProductProjection #green;text:green : "attributes"
Attribute --> ProductVariant #green;text:green : "attributes"
Attribute --> ProductVariantDraft #green;text:green : "attributes"
Attribute --> ProductAddVariantAction #green;text:green : "attributes"
Attribute --> VariantData #green;text:green : "attributes"
Attribute --> VariantDraft #green;text:green : "attributes"
Attribute --> VariantProjection #green;text:green : "attributes"
Attribute --> VariantSetAttributesAction #green;text:green : "attributes"
Attribute --> DuplicateAttributeValueError #green;text:green : "attribute"
Attribute --> GraphQLDuplicateAttributeValueError #green;text:green : "attribute"
Attribute --> VariantAttributesVariant #green;text:green : "attributes"
@enduml
