@startuml

hide empty fields
hide empty methods
legend
|= |= line |
|<back:black>   </back>| inheritance |
|<back:green>   </back>| property reference |
|<back:blue>   </back>| discriminated class |
endlegend
interface CustomerReference [[CustomerReference.svg]] extends Reference {
    typeId: [[ReferenceTypeId.svg ReferenceTypeId]]
    id: String
    obj: [[Customer.svg Customer]]
}
interface Reference [[Reference.svg]]  {
    typeId: [[ReferenceTypeId.svg ReferenceTypeId]]
    id: String
}


interface Associate [[Associate.svg]]  {
    associateRoleAssignments: [[AssociateRoleAssignment.svg List<AssociateRoleAssignment>]]
    roles: [[AssociateRoleDeprecated.svg List<AssociateRoleDeprecated>]]
    customer: [[CustomerReference.svg CustomerReference]]
}
interface BusinessUnitAssociateResponse [[BusinessUnitAssociateResponse.svg]]  {
    customer: [[CustomerReference.svg CustomerReference]]
    associateRoles: [[AssociateRole.svg List<AssociateRole>]]
    inheritedAssociateRoles: [[AssociateRole.svg List<AssociateRole>]]
    permissions: [[Permission.svg List<Permission>]]
}
interface InheritedAssociate [[InheritedAssociate.svg]]  {
    associateRoleAssignments: [[InheritedAssociateRoleAssignment.svg List<InheritedAssociateRoleAssignment>]]
    customer: [[CustomerReference.svg CustomerReference]]
}
interface ClientLogging [[ClientLogging.svg]]  {
    clientId: String
    externalUserId: String
    customer: [[CustomerReference.svg CustomerReference]]
    anonymousId: String
    associate: [[CustomerReference.svg CustomerReference]]
}
interface CreatedBy [[CreatedBy.svg]]  {
    clientId: String
    externalUserId: String
    customer: [[CustomerReference.svg CustomerReference]]
    anonymousId: String
    associate: [[CustomerReference.svg CustomerReference]]
    attributedTo: [[Attribution.svg Attribution]]
}
interface LastModifiedBy [[LastModifiedBy.svg]]  {
    clientId: String
    externalUserId: String
    customer: [[CustomerReference.svg CustomerReference]]
    anonymousId: String
    associate: [[CustomerReference.svg CustomerReference]]
    attributedTo: [[Attribution.svg Attribution]]
}
interface MyPayment [[MyPayment.svg]]  {
    id: String
    version: Long
    customer: [[CustomerReference.svg CustomerReference]]
    anonymousId: String
    amountPlanned: [[CentPrecisionMoney.svg CentPrecisionMoney]]
    paymentMethodInfo: [[PaymentMethodInfo.svg PaymentMethodInfo]]
    transactions: [[Transaction.svg List<Transaction>]]
    custom: [[CustomFields.svg CustomFields]]
}
interface ApprovalFlowApprovedMessage [[ApprovalFlowApprovedMessage.svg]]  {
    id: String
    version: Long
    createdAt: DateTime
    lastModifiedAt: DateTime
    lastModifiedBy: [[LastModifiedBy.svg LastModifiedBy]]
    createdBy: [[CreatedBy.svg CreatedBy]]
    sequenceNumber: Long
    resource: [[Reference.svg Reference]]
    resourceVersion: Long
    type: String
    resourceUserProvidedIdentifiers: [[UserProvidedIdentifiers.svg UserProvidedIdentifiers]]
    associate: [[CustomerReference.svg CustomerReference]]
    order: [[OrderReference.svg OrderReference]]
}
interface ApprovalFlowRejectedMessage [[ApprovalFlowRejectedMessage.svg]]  {
    id: String
    version: Long
    createdAt: DateTime
    lastModifiedAt: DateTime
    lastModifiedBy: [[LastModifiedBy.svg LastModifiedBy]]
    createdBy: [[CreatedBy.svg CreatedBy]]
    sequenceNumber: Long
    resource: [[Reference.svg Reference]]
    resourceVersion: Long
    type: String
    resourceUserProvidedIdentifiers: [[UserProvidedIdentifiers.svg UserProvidedIdentifiers]]
    associate: [[CustomerReference.svg CustomerReference]]
    rejectionReason: String
    order: [[OrderReference.svg OrderReference]]
}
interface OrderCustomerSetMessage [[OrderCustomerSetMessage.svg]]  {
    id: String
    version: Long
    createdAt: DateTime
    lastModifiedAt: DateTime
    lastModifiedBy: [[LastModifiedBy.svg LastModifiedBy]]
    createdBy: [[CreatedBy.svg CreatedBy]]
    sequenceNumber: Long
    resource: [[Reference.svg Reference]]
    resourceVersion: Long
    type: String
    resourceUserProvidedIdentifiers: [[UserProvidedIdentifiers.svg UserProvidedIdentifiers]]
    customer: [[CustomerReference.svg CustomerReference]]
    customerGroup: [[CustomerGroupReference.svg CustomerGroupReference]]
    oldCustomer: [[CustomerReference.svg CustomerReference]]
    oldCustomerGroup: [[CustomerGroupReference.svg CustomerGroupReference]]
}
interface QuoteCustomerChangedMessage [[QuoteCustomerChangedMessage.svg]]  {
    id: String
    version: Long
    createdAt: DateTime
    lastModifiedAt: DateTime
    lastModifiedBy: [[LastModifiedBy.svg LastModifiedBy]]
    createdBy: [[CreatedBy.svg CreatedBy]]
    sequenceNumber: Long
    resource: [[Reference.svg Reference]]
    resourceVersion: Long
    type: String
    resourceUserProvidedIdentifiers: [[UserProvidedIdentifiers.svg UserProvidedIdentifiers]]
    customer: [[CustomerReference.svg CustomerReference]]
    previousCustomer: [[CustomerReference.svg CustomerReference]]
}
interface QuoteRequestCustomerChangedMessage [[QuoteRequestCustomerChangedMessage.svg]]  {
    id: String
    version: Long
    createdAt: DateTime
    lastModifiedAt: DateTime
    lastModifiedBy: [[LastModifiedBy.svg LastModifiedBy]]
    createdBy: [[CreatedBy.svg CreatedBy]]
    sequenceNumber: Long
    resource: [[Reference.svg Reference]]
    resourceVersion: Long
    type: String
    resourceUserProvidedIdentifiers: [[UserProvidedIdentifiers.svg UserProvidedIdentifiers]]
    customer: [[CustomerReference.svg CustomerReference]]
    previousCustomer: [[CustomerReference.svg CustomerReference]]
}
interface ApprovalFlowApprovedMessagePayload [[ApprovalFlowApprovedMessagePayload.svg]]  {
    type: String
    associate: [[CustomerReference.svg CustomerReference]]
    order: [[OrderReference.svg OrderReference]]
}
interface ApprovalFlowRejectedMessagePayload [[ApprovalFlowRejectedMessagePayload.svg]]  {
    type: String
    associate: [[CustomerReference.svg CustomerReference]]
    rejectionReason: String
    order: [[OrderReference.svg OrderReference]]
}
interface OrderCustomerSetMessagePayload [[OrderCustomerSetMessagePayload.svg]]  {
    type: String
    customer: [[CustomerReference.svg CustomerReference]]
    customerGroup: [[CustomerGroupReference.svg CustomerGroupReference]]
    oldCustomer: [[CustomerReference.svg CustomerReference]]
    oldCustomerGroup: [[CustomerGroupReference.svg CustomerGroupReference]]
}
interface QuoteCustomerChangedMessagePayload [[QuoteCustomerChangedMessagePayload.svg]]  {
    type: String
    customer: [[CustomerReference.svg CustomerReference]]
    previousCustomer: [[CustomerReference.svg CustomerReference]]
}
interface QuoteRequestCustomerChangedMessagePayload [[QuoteRequestCustomerChangedMessagePayload.svg]]  {
    type: String
    customer: [[CustomerReference.svg CustomerReference]]
    previousCustomer: [[CustomerReference.svg CustomerReference]]
}
interface PaymentMethod [[PaymentMethod.svg]]  {
    id: String
    version: Long
    createdAt: DateTime
    lastModifiedAt: DateTime
    key: String
    name: [[LocalizedString.svg LocalizedString]]
    customer: [[CustomerReference.svg CustomerReference]]
    businessUnit: [[BusinessUnitKeyReference.svg BusinessUnitKeyReference]]
    method: String
    paymentInterface: String
    interfaceAccount: String
    token: [[PaymentMethodToken.svg PaymentMethodToken]]
    paymentMethodStatus: [[PaymentMethodStatus.svg PaymentMethodStatus]]
    default: Boolean
    custom: [[CustomFields.svg CustomFields]]
    lastModifiedBy: [[LastModifiedBy.svg LastModifiedBy]]
    createdBy: [[CreatedBy.svg CreatedBy]]
}
interface Payment [[Payment.svg]]  {
    id: String
    version: Long
    createdAt: DateTime
    lastModifiedAt: DateTime
    lastModifiedBy: [[LastModifiedBy.svg LastModifiedBy]]
    createdBy: [[CreatedBy.svg CreatedBy]]
    customer: [[CustomerReference.svg CustomerReference]]
    anonymousId: String
    externalId: String
    interfaceId: String
    amountPlanned: [[CentPrecisionMoney.svg CentPrecisionMoney]]
    amountAuthorized: [[TypedMoney.svg TypedMoney]]
    authorizedUntil: String
    amountPaid: [[TypedMoney.svg TypedMoney]]
    amountRefunded: [[TypedMoney.svg TypedMoney]]
    paymentMethodInfo: [[PaymentMethodInfo.svg PaymentMethodInfo]]
    paymentStatus: [[PaymentStatus.svg PaymentStatus]]
    transactions: [[Transaction.svg List<Transaction>]]
    interfaceInteractions: [[CustomFields.svg List<CustomFields>]]
    custom: [[CustomFields.svg CustomFields]]
    key: String
}
interface QuoteRequest [[QuoteRequest.svg]]  {
    id: String
    version: Long
    createdAt: DateTime
    lastModifiedAt: DateTime
    key: String
    lastModifiedBy: [[LastModifiedBy.svg LastModifiedBy]]
    createdBy: [[CreatedBy.svg CreatedBy]]
    quoteRequestState: [[QuoteRequestState.svg QuoteRequestState]]
    comment: String
    customer: [[CustomerReference.svg CustomerReference]]
    customerGroup: [[CustomerGroupReference.svg CustomerGroupReference]]
    store: [[StoreKeyReference.svg StoreKeyReference]]
    lineItems: [[LineItem.svg List<LineItem>]]
    customLineItems: [[CustomLineItem.svg List<CustomLineItem>]]
    totalPrice: [[TypedMoney.svg TypedMoney]]
    taxedPrice: [[TaxedPrice.svg TaxedPrice]]
    shippingAddress: [[Address.svg Address]]
    billingAddress: [[Address.svg Address]]
    inventoryMode: [[InventoryMode.svg InventoryMode]]
    taxMode: [[TaxMode.svg TaxMode]]
    priceRoundingMode: [[RoundingMode.svg RoundingMode]]
    taxRoundingMode: [[RoundingMode.svg RoundingMode]]
    taxCalculationMode: [[TaxCalculationMode.svg TaxCalculationMode]]
    country: String
    shippingInfo: [[ShippingInfo.svg ShippingInfo]]
    paymentInfo: [[PaymentInfo.svg PaymentInfo]]
    shippingRateInput: [[ShippingRateInput.svg ShippingRateInput]]
    itemShippingAddresses: [[Address.svg List<Address>]]
    directDiscounts: [[DirectDiscount.svg List<DirectDiscount>]]
    directDiscountsIgnoreCartDiscounts: Boolean
    custom: [[CustomFields.svg CustomFields]]
    state: [[StateReference.svg StateReference]]
    purchaseOrderNumber: String
    cart: [[CartReference.svg CartReference]]
    businessUnit: [[BusinessUnitKeyReference.svg BusinessUnitKeyReference]]
}
interface Quote [[Quote.svg]]  {
    id: String
    version: Long
    createdAt: DateTime
    lastModifiedAt: DateTime
    key: String
    lastModifiedBy: [[LastModifiedBy.svg LastModifiedBy]]
    createdBy: [[CreatedBy.svg CreatedBy]]
    quoteRequest: [[QuoteRequestReference.svg QuoteRequestReference]]
    stagedQuote: [[StagedQuoteReference.svg StagedQuoteReference]]
    customer: [[CustomerReference.svg CustomerReference]]
    customerGroup: [[CustomerGroupReference.svg CustomerGroupReference]]
    validTo: DateTime
    sellerComment: String
    buyerComment: String
    store: [[StoreKeyReference.svg StoreKeyReference]]
    lineItems: [[LineItem.svg List<LineItem>]]
    customLineItems: [[CustomLineItem.svg List<CustomLineItem>]]
    totalPrice: [[TypedMoney.svg TypedMoney]]
    taxedPrice: [[TaxedPrice.svg TaxedPrice]]
    shippingAddress: [[Address.svg Address]]
    billingAddress: [[Address.svg Address]]
    inventoryMode: [[InventoryMode.svg InventoryMode]]
    taxMode: [[TaxMode.svg TaxMode]]
    priceRoundingMode: [[RoundingMode.svg RoundingMode]]
    taxRoundingMode: [[RoundingMode.svg RoundingMode]]
    taxCalculationMode: [[TaxCalculationMode.svg TaxCalculationMode]]
    country: String
    shippingInfo: [[ShippingInfo.svg ShippingInfo]]
    paymentInfo: [[PaymentInfo.svg PaymentInfo]]
    shippingRateInput: [[ShippingRateInput.svg ShippingRateInput]]
    itemShippingAddresses: [[Address.svg List<Address>]]
    directDiscounts: [[DirectDiscount.svg List<DirectDiscount>]]
    directDiscountsIgnoreCartDiscounts: Boolean
    custom: [[CustomFields.svg CustomFields]]
    quoteState: [[QuoteState.svg QuoteState]]
    state: [[StateReference.svg StateReference]]
    purchaseOrderNumber: String
    businessUnit: [[BusinessUnitKeyReference.svg BusinessUnitKeyReference]]
}
interface RecurringOrder [[RecurringOrder.svg]]  {
    id: String
    version: Long
    createdAt: DateTime
    lastModifiedAt: DateTime
    key: String
    cart: [[CartReference.svg CartReference]]
    originOrder: [[OrderReference.svg OrderReference]]
    startsAt: DateTime
    resumesAt: DateTime
    expiresAt: DateTime
    lastOrderAt: DateTime
    nextOrderAt: DateTime
    skipConfiguration: [[SkipConfiguration.svg SkipConfiguration]]
    store: [[StoreKeyReference.svg StoreKeyReference]]
    businessUnit: [[BusinessUnitKeyReference.svg BusinessUnitKeyReference]]
    state: [[StateReference.svg StateReference]]
    recurringOrderState: [[RecurringOrderState.svg RecurringOrderState]]
    schedule: [[RecurrencePolicySchedule.svg RecurrencePolicySchedule]]
    customer: [[CustomerReference.svg CustomerReference]]
    customerEmail: String
    custom: [[CustomFields.svg CustomFields]]
    lastModifiedBy: [[LastModifiedBy.svg LastModifiedBy]]
    createdBy: [[CreatedBy.svg CreatedBy]]
}
interface Review [[Review.svg]]  {
    id: String
    version: Long
    createdAt: DateTime
    lastModifiedAt: DateTime
    lastModifiedBy: [[LastModifiedBy.svg LastModifiedBy]]
    createdBy: [[CreatedBy.svg CreatedBy]]
    key: String
    uniquenessValue: String
    locale: String
    authorName: String
    title: String
    text: String
    target: [[Object.svg Object]]
    includedInStatistics: Boolean
    rating: Integer
    state: [[StateReference.svg StateReference]]
    customer: [[CustomerReference.svg CustomerReference]]
    custom: [[CustomFields.svg CustomFields]]
}
interface ShoppingList [[ShoppingList.svg]]  {
    id: String
    version: Long
    createdAt: DateTime
    lastModifiedAt: DateTime
    name: [[LocalizedString.svg LocalizedString]]
    key: String
    customer: [[CustomerReference.svg CustomerReference]]
    slug: [[LocalizedString.svg LocalizedString]]
    description: [[LocalizedString.svg LocalizedString]]
    lineItems: [[ShoppingListLineItem.svg List<ShoppingListLineItem>]]
    textLineItems: [[TextLineItem.svg List<TextLineItem>]]
    deleteDaysAfterLastModification: Long
    anonymousId: String
    store: [[StoreKeyReference.svg StoreKeyReference]]
    businessUnit: [[BusinessUnitKeyReference.svg BusinessUnitKeyReference]]
    custom: [[CustomFields.svg CustomFields]]
    lastModifiedBy: [[LastModifiedBy.svg LastModifiedBy]]
    createdBy: [[CreatedBy.svg CreatedBy]]
}
interface StagedQuote [[StagedQuote.svg]]  {
    id: String
    version: Long
    createdAt: DateTime
    lastModifiedAt: DateTime
    key: String
    lastModifiedBy: [[LastModifiedBy.svg LastModifiedBy]]
    createdBy: [[CreatedBy.svg CreatedBy]]
    stagedQuoteState: [[StagedQuoteState.svg StagedQuoteState]]
    customer: [[CustomerReference.svg CustomerReference]]
    quoteRequest: [[QuoteRequestReference.svg QuoteRequestReference]]
    quotationCart: [[CartReference.svg CartReference]]
    validTo: DateTime
    sellerComment: String
    custom: [[CustomFields.svg CustomFields]]
    state: [[StateReference.svg StateReference]]
    purchaseOrderNumber: String
    businessUnit: [[BusinessUnitKeyReference.svg BusinessUnitKeyReference]]
    store: [[StoreKeyReference.svg StoreKeyReference]]
}

CustomerReference --> Associate #green;text:green : "customer"
CustomerReference --> BusinessUnitAssociateResponse #green;text:green : "customer"
CustomerReference --> InheritedAssociate #green;text:green : "customer"
CustomerReference --> ClientLogging #green;text:green : "customer"
CustomerReference --> ClientLogging #green;text:green : "associate"
CustomerReference --> CreatedBy #green;text:green : "customer"
CustomerReference --> CreatedBy #green;text:green : "associate"
CustomerReference --> LastModifiedBy #green;text:green : "customer"
CustomerReference --> LastModifiedBy #green;text:green : "associate"
CustomerReference --> MyPayment #green;text:green : "customer"
CustomerReference --> ApprovalFlowApprovedMessage #green;text:green : "associate"
CustomerReference --> ApprovalFlowRejectedMessage #green;text:green : "associate"
CustomerReference --> OrderCustomerSetMessage #green;text:green : "customer"
CustomerReference --> OrderCustomerSetMessage #green;text:green : "oldCustomer"
CustomerReference --> QuoteCustomerChangedMessage #green;text:green : "customer"
CustomerReference --> QuoteCustomerChangedMessage #green;text:green : "previousCustomer"
CustomerReference --> QuoteRequestCustomerChangedMessage #green;text:green : "customer"
CustomerReference --> QuoteRequestCustomerChangedMessage #green;text:green : "previousCustomer"
CustomerReference --> ApprovalFlowApprovedMessagePayload #green;text:green : "associate"
CustomerReference --> ApprovalFlowRejectedMessagePayload #green;text:green : "associate"
CustomerReference --> OrderCustomerSetMessagePayload #green;text:green : "customer"
CustomerReference --> OrderCustomerSetMessagePayload #green;text:green : "oldCustomer"
CustomerReference --> QuoteCustomerChangedMessagePayload #green;text:green : "customer"
CustomerReference --> QuoteCustomerChangedMessagePayload #green;text:green : "previousCustomer"
CustomerReference --> QuoteRequestCustomerChangedMessagePayload #green;text:green : "customer"
CustomerReference --> QuoteRequestCustomerChangedMessagePayload #green;text:green : "previousCustomer"
CustomerReference --> PaymentMethod #green;text:green : "customer"
CustomerReference --> Payment #green;text:green : "customer"
CustomerReference --> QuoteRequest #green;text:green : "customer"
CustomerReference --> Quote #green;text:green : "customer"
CustomerReference --> RecurringOrder #green;text:green : "customer"
CustomerReference --> Review #green;text:green : "customer"
CustomerReference --> ShoppingList #green;text:green : "customer"
CustomerReference --> StagedQuote #green;text:green : "customer"
@enduml
