@startuml

hide empty fields
hide empty methods
legend
|= |= line |
|<back:black>   </back>| inheritance |
|<back:green>   </back>| property reference |
|<back:blue>   </back>| discriminated class |
endlegend
interface CustomerUpdateAction [[CustomerUpdateAction.svg]]  {
    action: String
}


interface CustomerAddAddressAction [[CustomerAddAddressAction.svg]]  {
    action: String
    address: [[AddressDraft.svg AddressDraft]]
}
interface CustomerAddBillingAddressIdAction [[CustomerAddBillingAddressIdAction.svg]]  {
    action: String
    addressId: String
    addressKey: String
}
interface CustomerAddCustomerGroupAssignmentAction [[CustomerAddCustomerGroupAssignmentAction.svg]]  {
    action: String
    customerGroupAssignment: [[CustomerGroupAssignmentDraft.svg CustomerGroupAssignmentDraft]]
}
interface CustomerAddShippingAddressIdAction [[CustomerAddShippingAddressIdAction.svg]]  {
    action: String
    addressId: String
    addressKey: String
}
interface CustomerAddStoreAction [[CustomerAddStoreAction.svg]]  {
    action: String
    store: [[StoreResourceIdentifier.svg StoreResourceIdentifier]]
}
interface CustomerChangeAddressAction [[CustomerChangeAddressAction.svg]]  {
    action: String
    addressId: String
    addressKey: String
    address: [[AddressDraft.svg AddressDraft]]
}
interface CustomerChangeEmailAction [[CustomerChangeEmailAction.svg]]  {
    action: String
    email: String
}
interface CustomerRemoveAddressAction [[CustomerRemoveAddressAction.svg]]  {
    action: String
    addressId: String
    addressKey: String
}
interface CustomerRemoveBillingAddressIdAction [[CustomerRemoveBillingAddressIdAction.svg]]  {
    action: String
    addressId: String
    addressKey: String
}
interface CustomerRemoveCustomerGroupAssignmentAction [[CustomerRemoveCustomerGroupAssignmentAction.svg]]  {
    action: String
    customerGroup: [[CustomerGroupResourceIdentifier.svg CustomerGroupResourceIdentifier]]
}
interface CustomerRemoveShippingAddressIdAction [[CustomerRemoveShippingAddressIdAction.svg]]  {
    action: String
    addressId: String
    addressKey: String
}
interface CustomerRemoveStoreAction [[CustomerRemoveStoreAction.svg]]  {
    action: String
    store: [[StoreResourceIdentifier.svg StoreResourceIdentifier]]
}
interface CustomerSetAddressCustomFieldAction [[CustomerSetAddressCustomFieldAction.svg]]  {
    action: String
    addressId: String
    name: String
    value: [[Object.svg Object]]
}
interface CustomerSetAddressCustomTypeAction [[CustomerSetAddressCustomTypeAction.svg]]  {
    action: String
    addressId: String
    type: [[TypeResourceIdentifier.svg TypeResourceIdentifier]]
    fields: [[FieldContainer.svg FieldContainer]]
}
interface CustomerSetAuthenticationModeAction [[CustomerSetAuthenticationModeAction.svg]]  {
    action: String
    authMode: [[AuthenticationMode.svg AuthenticationMode]]
    password: String
}
interface CustomerSetCompanyNameAction [[CustomerSetCompanyNameAction.svg]]  {
    action: String
    companyName: String
}
interface CustomerSetCustomFieldAction [[CustomerSetCustomFieldAction.svg]]  {
    action: String
    name: String
    value: [[Object.svg Object]]
}
interface CustomerSetCustomTypeAction [[CustomerSetCustomTypeAction.svg]]  {
    action: String
    type: [[TypeResourceIdentifier.svg TypeResourceIdentifier]]
    fields: [[FieldContainer.svg FieldContainer]]
}
interface CustomerSetCustomerGroupAction [[CustomerSetCustomerGroupAction.svg]]  {
    action: String
    customerGroup: [[CustomerGroupResourceIdentifier.svg CustomerGroupResourceIdentifier]]
}
interface CustomerSetCustomerGroupAssignmentsAction [[CustomerSetCustomerGroupAssignmentsAction.svg]]  {
    action: String
    customerGroupAssignments: [[CustomerGroupAssignmentDraft.svg List<CustomerGroupAssignmentDraft>]]
}
interface CustomerSetCustomerNumberAction [[CustomerSetCustomerNumberAction.svg]]  {
    action: String
    customerNumber: String
}
interface CustomerSetDateOfBirthAction [[CustomerSetDateOfBirthAction.svg]]  {
    action: String
    dateOfBirth: Date
}
interface CustomerSetDefaultBillingAddressAction [[CustomerSetDefaultBillingAddressAction.svg]]  {
    action: String
    addressId: String
    addressKey: String
}
interface CustomerSetDefaultShippingAddressAction [[CustomerSetDefaultShippingAddressAction.svg]]  {
    action: String
    addressId: String
    addressKey: String
}
interface CustomerSetExternalIdAction [[CustomerSetExternalIdAction.svg]]  {
    action: String
    externalId: String
}
interface CustomerSetFirstNameAction [[CustomerSetFirstNameAction.svg]]  {
    action: String
    firstName: String
}
interface CustomerSetKeyAction [[CustomerSetKeyAction.svg]]  {
    action: String
    key: String
}
interface CustomerSetLastNameAction [[CustomerSetLastNameAction.svg]]  {
    action: String
    lastName: String
}
interface CustomerSetLocaleAction [[CustomerSetLocaleAction.svg]]  {
    action: String
    locale: String
}
interface CustomerSetMiddleNameAction [[CustomerSetMiddleNameAction.svg]]  {
    action: String
    middleName: String
}
interface CustomerSetSalutationAction [[CustomerSetSalutationAction.svg]]  {
    action: String
    salutation: String
}
interface CustomerSetStoresAction [[CustomerSetStoresAction.svg]]  {
    action: String
    stores: [[StoreResourceIdentifier.svg List<StoreResourceIdentifier>]]
}
interface CustomerSetTitleAction [[CustomerSetTitleAction.svg]]  {
    action: String
    title: String
}
interface CustomerSetVatIdAction [[CustomerSetVatIdAction.svg]]  {
    action: String
    vatId: String
}
interface CustomerUpdate [[CustomerUpdate.svg]]  {
    version: Long
    actions: [[CustomerUpdateAction.svg List<CustomerUpdateAction>]]
}
CustomerUpdateAction --> CustomerAddAddressAction #blue;text:blue : "action : addAddress"
CustomerUpdateAction --> CustomerAddBillingAddressIdAction #blue;text:blue : "action : addBillingAddressId"
CustomerUpdateAction --> CustomerAddCustomerGroupAssignmentAction #blue;text:blue : "action : addCustomerGroupAssignment"
CustomerUpdateAction --> CustomerAddShippingAddressIdAction #blue;text:blue : "action : addShippingAddressId"
CustomerUpdateAction --> CustomerAddStoreAction #blue;text:blue : "action : addStore"
CustomerUpdateAction --> CustomerChangeAddressAction #blue;text:blue : "action : changeAddress"
CustomerUpdateAction --> CustomerChangeEmailAction #blue;text:blue : "action : changeEmail"
CustomerUpdateAction --> CustomerRemoveAddressAction #blue;text:blue : "action : removeAddress"
CustomerUpdateAction --> CustomerRemoveBillingAddressIdAction #blue;text:blue : "action : removeBillingAddressId"
CustomerUpdateAction --> CustomerRemoveCustomerGroupAssignmentAction #blue;text:blue : "action : removeCustomerGroupAssignment"
CustomerUpdateAction --> CustomerRemoveShippingAddressIdAction #blue;text:blue : "action : removeShippingAddressId"
CustomerUpdateAction --> CustomerRemoveStoreAction #blue;text:blue : "action : removeStore"
CustomerUpdateAction --> CustomerSetAddressCustomFieldAction #blue;text:blue : "action : setAddressCustomField"
CustomerUpdateAction --> CustomerSetAddressCustomTypeAction #blue;text:blue : "action : setAddressCustomType"
CustomerUpdateAction --> CustomerSetAuthenticationModeAction #blue;text:blue : "action : setAuthenticationMode"
CustomerUpdateAction --> CustomerSetCompanyNameAction #blue;text:blue : "action : setCompanyName"
CustomerUpdateAction --> CustomerSetCustomFieldAction #blue;text:blue : "action : setCustomField"
CustomerUpdateAction --> CustomerSetCustomTypeAction #blue;text:blue : "action : setCustomType"
CustomerUpdateAction --> CustomerSetCustomerGroupAction #blue;text:blue : "action : setCustomerGroup"
CustomerUpdateAction --> CustomerSetCustomerGroupAssignmentsAction #blue;text:blue : "action : setCustomerGroupAssignments"
CustomerUpdateAction --> CustomerSetCustomerNumberAction #blue;text:blue : "action : setCustomerNumber"
CustomerUpdateAction --> CustomerSetDateOfBirthAction #blue;text:blue : "action : setDateOfBirth"
CustomerUpdateAction --> CustomerSetDefaultBillingAddressAction #blue;text:blue : "action : setDefaultBillingAddress"
CustomerUpdateAction --> CustomerSetDefaultShippingAddressAction #blue;text:blue : "action : setDefaultShippingAddress"
CustomerUpdateAction --> CustomerSetExternalIdAction #blue;text:blue : "action : setExternalId"
CustomerUpdateAction --> CustomerSetFirstNameAction #blue;text:blue : "action : setFirstName"
CustomerUpdateAction --> CustomerSetKeyAction #blue;text:blue : "action : setKey"
CustomerUpdateAction --> CustomerSetLastNameAction #blue;text:blue : "action : setLastName"
CustomerUpdateAction --> CustomerSetLocaleAction #blue;text:blue : "action : setLocale"
CustomerUpdateAction --> CustomerSetMiddleNameAction #blue;text:blue : "action : setMiddleName"
CustomerUpdateAction --> CustomerSetSalutationAction #blue;text:blue : "action : setSalutation"
CustomerUpdateAction --> CustomerSetStoresAction #blue;text:blue : "action : setStores"
CustomerUpdateAction --> CustomerSetTitleAction #blue;text:blue : "action : setTitle"
CustomerUpdateAction --> CustomerSetVatIdAction #blue;text:blue : "action : setVatId"
CustomerUpdateAction --> CustomerUpdate #green;text:green : "actions"
@enduml
