@startuml

hide empty fields
hide empty methods
legend
|= |= line |
|<back:black>   </back>| inheritance |
|<back:green>   </back>| property reference |
|<back:blue>   </back>| discriminated class |
endlegend
interface DeliveryPayload [[DeliveryPayload.svg]]  {
    notificationType: String
}


interface EventDeliveryPayload [[EventDeliveryPayload.svg]]  {
    notificationType: String
    id: String
    type: [[EventType.svg EventType]]
    resourceType: String
    data: [[Object.svg Object]]
    createdAt: DateTime
}
interface MessageDeliveryPayload [[MessageDeliveryPayload.svg]]  {
    notificationType: String
    id: String
    version: Long
    projectKey: String
    createdAt: DateTime
    lastModifiedAt: DateTime
    sequenceNumber: Long
    resourceVersion: Long
    resource: [[Reference.svg Reference]]
    resourceUserProvidedIdentifiers: [[UserProvidedIdentifiers.svg UserProvidedIdentifiers]]
    payloadNotIncluded: [[PayloadNotIncluded.svg PayloadNotIncluded]]
}
interface ResourceCreatedDeliveryPayload [[ResourceCreatedDeliveryPayload.svg]]  {
    notificationType: String
    projectKey: String
    resource: [[Reference.svg Reference]]
    resourceUserProvidedIdentifiers: [[UserProvidedIdentifiers.svg UserProvidedIdentifiers]]
    version: Long
    modifiedAt: DateTime
}
interface ResourceDeletedDeliveryPayload [[ResourceDeletedDeliveryPayload.svg]]  {
    notificationType: String
    projectKey: String
    resource: [[Reference.svg Reference]]
    resourceUserProvidedIdentifiers: [[UserProvidedIdentifiers.svg UserProvidedIdentifiers]]
    version: Long
    modifiedAt: DateTime
    dataErasure: Boolean
}
interface ResourceUpdatedDeliveryPayload [[ResourceUpdatedDeliveryPayload.svg]]  {
    notificationType: String
    projectKey: String
    resource: [[Reference.svg Reference]]
    resourceUserProvidedIdentifiers: [[UserProvidedIdentifiers.svg UserProvidedIdentifiers]]
    version: Long
    oldVersion: Long
    modifiedAt: DateTime
}
interface CloudEventsPayload [[CloudEventsPayload.svg]]  {
    specversion: String
    id: String
    type: String
    source: String
    subject: String
    time: DateTime
    sequence: String
    sequencetype: String
    dataref: String
    data: [[DeliveryPayload.svg DeliveryPayload]]
}
DeliveryPayload --> EventDeliveryPayload #blue;text:blue : "notificationType : Event"
DeliveryPayload --> MessageDeliveryPayload #blue;text:blue : "notificationType : Message"
DeliveryPayload --> ResourceCreatedDeliveryPayload #blue;text:blue : "notificationType : ResourceCreated"
DeliveryPayload --> ResourceDeletedDeliveryPayload #blue;text:blue : "notificationType : ResourceDeleted"
DeliveryPayload --> ResourceUpdatedDeliveryPayload #blue;text:blue : "notificationType : ResourceUpdated"
DeliveryPayload --> CloudEventsPayload #green;text:green : "data"
@enduml
