@startuml

hide empty fields
hide empty methods
legend
|= |= line |
|<back:black>   </back>| inheritance |
|<back:green>   </back>| property reference |
|<back:blue>   </back>| discriminated class |
endlegend
interface DiscountGroupUpdateAction [[DiscountGroupUpdateAction.svg]]  {
    action: String
}


interface DiscountGroupSetDescriptionAction [[DiscountGroupSetDescriptionAction.svg]]  {
    action: String
    description: [[LocalizedString.svg LocalizedString]]
}
interface DiscountGroupSetIsActiveAction [[DiscountGroupSetIsActiveAction.svg]]  {
    action: String
    isActive: Boolean
}
interface DiscountGroupSetKeyAction [[DiscountGroupSetKeyAction.svg]]  {
    action: String
    key: String
}
interface DiscountGroupSetNameAction [[DiscountGroupSetNameAction.svg]]  {
    action: String
    name: [[LocalizedString.svg LocalizedString]]
}
interface DiscountGroupSetSortOrderAction [[DiscountGroupSetSortOrderAction.svg]]  {
    action: String
    sortOrder: String
}
interface DiscountGroupUpdate [[DiscountGroupUpdate.svg]]  {
    version: Long
    actions: [[DiscountGroupUpdateAction.svg List<DiscountGroupUpdateAction>]]
}
DiscountGroupUpdateAction --> DiscountGroupSetDescriptionAction #blue;text:blue : "action : setDescription"
DiscountGroupUpdateAction --> DiscountGroupSetIsActiveAction #blue;text:blue : "action : setIsActive"
DiscountGroupUpdateAction --> DiscountGroupSetKeyAction #blue;text:blue : "action : setKey"
DiscountGroupUpdateAction --> DiscountGroupSetNameAction #blue;text:blue : "action : setName"
DiscountGroupUpdateAction --> DiscountGroupSetSortOrderAction #blue;text:blue : "action : setSortOrder"
DiscountGroupUpdateAction --> DiscountGroupUpdate #green;text:green : "actions"
@enduml
