@startuml

hide empty fields
hide empty methods
legend
|= |= line |
|<back:black>   </back>| inheritance |
|<back:green>   </back>| property reference |
|<back:blue>   </back>| discriminated class |
endlegend
interface ExtensionAdditionalContextDraft [[ExtensionAdditionalContextDraft.svg]]  {
    includeOldResource: Boolean
}



interface ExtensionDraft [[ExtensionDraft.svg]]  {
    key: String
    destination: [[ExtensionDestination.svg ExtensionDestination]]
    triggers: [[ExtensionTrigger.svg List<ExtensionTrigger>]]
    timeoutInMs: Integer
    dependencies: [[ExtensionResourceIdentifier.svg List<ExtensionResourceIdentifier>]]
    expansionPaths: [[String.svg List<String>]]
    additionalContext: [[ExtensionAdditionalContextDraft.svg ExtensionAdditionalContextDraft]]
}
interface ExtensionSetAdditionalContextAction [[ExtensionSetAdditionalContextAction.svg]]  {
    action: String
    additionalContext: [[ExtensionAdditionalContextDraft.svg ExtensionAdditionalContextDraft]]
}

ExtensionAdditionalContextDraft --> ExtensionDraft #green;text:green : "additionalContext"
ExtensionAdditionalContextDraft --> ExtensionSetAdditionalContextAction #green;text:green : "additionalContext"
@enduml
