@startuml

hide empty fields
hide empty methods
legend
|= |= line |
|<back:black>   </back>| inheritance |
|<back:green>   </back>| property reference |
|<back:blue>   </back>| discriminated class |
endlegend
interface ExternalOAuth [[ExternalOAuth.svg]]  {
    url: String
    authorizationHeader: String
}



interface Project [[Project.svg]]  {
    version: Long
    key: String
    name: String
    countries: [[String.svg List<String>]]
    currencies: [[String.svg List<String>]]
    languages: [[String.svg List<String>]]
    createdAt: DateTime
    trialUntil: String
    messages: [[MessagesConfiguration.svg MessagesConfiguration]]
    carts: [[CartsConfiguration.svg CartsConfiguration]]
    shoppingLists: [[ShoppingListsConfiguration.svg ShoppingListsConfiguration]]
    shippingRateInputType: [[ShippingRateInputType.svg ShippingRateInputType]]
    externalOAuth: [[ExternalOAuth.svg ExternalOAuth]]
    searchIndexing: [[SearchIndexingConfiguration.svg SearchIndexingConfiguration]]
    businessUnits: [[BusinessUnitConfiguration.svg BusinessUnitConfiguration]]
    inventory: [[InventoryConfiguration.svg InventoryConfiguration]]
    discounts: [[DiscountsConfiguration.svg DiscountsConfiguration]]
    productCatalogModel: [[ProductCatalogModel.svg ProductCatalogModel]]
}
interface ProjectSetExternalOAuthAction [[ProjectSetExternalOAuthAction.svg]]  {
    action: String
    externalOAuth: [[ExternalOAuth.svg ExternalOAuth]]
}

ExternalOAuth --> Project #green;text:green : "externalOAuth"
ExternalOAuth --> ProjectSetExternalOAuthAction #green;text:green : "externalOAuth"
@enduml
