@startuml

hide empty fields
hide empty methods
legend
|= |= line |
|<back:black>   </back>| inheritance |
|<back:green>   </back>| property reference |
|<back:blue>   </back>| discriminated class |
endlegend
interface InventoryEntryUpdateAction [[InventoryEntryUpdateAction.svg]]  {
    action: String
}


interface InventoryEntryAddQuantityAction [[InventoryEntryAddQuantityAction.svg]]  {
    action: String
    quantity: Long
}
interface InventoryEntryChangeQuantityAction [[InventoryEntryChangeQuantityAction.svg]]  {
    action: String
    quantity: Long
}
interface InventoryEntryRemoveQuantityAction [[InventoryEntryRemoveQuantityAction.svg]]  {
    action: String
    quantity: Long
}
interface InventoryEntrySetCustomFieldAction [[InventoryEntrySetCustomFieldAction.svg]]  {
    action: String
    name: String
    value: [[Object.svg Object]]
}
interface InventoryEntrySetCustomTypeAction [[InventoryEntrySetCustomTypeAction.svg]]  {
    action: String
    type: [[TypeResourceIdentifier.svg TypeResourceIdentifier]]
    fields: [[FieldContainer.svg FieldContainer]]
}
interface InventoryEntrySetExpectedDeliveryAction [[InventoryEntrySetExpectedDeliveryAction.svg]]  {
    action: String
    expectedDelivery: DateTime
}
interface InventoryEntrySetInventoryLimitsAction [[InventoryEntrySetInventoryLimitsAction.svg]]  {
    action: String
    minCartQuantity: Long
    maxCartQuantity: Long
}
interface InventoryEntrySetKeyAction [[InventoryEntrySetKeyAction.svg]]  {
    action: String
    key: String
}
interface InventoryEntrySetReorderPointAction [[InventoryEntrySetReorderPointAction.svg]]  {
    action: String
    quantity: Integer
}
interface InventoryEntrySetReservationExpirationInMinutesAction [[InventoryEntrySetReservationExpirationInMinutesAction.svg]]  {
    action: String
    reservationExpirationInMinutes: Integer
}
interface InventoryEntrySetRestockableInDaysAction [[InventoryEntrySetRestockableInDaysAction.svg]]  {
    action: String
    restockableInDays: Long
}
interface InventoryEntrySetSafetyStockAction [[InventoryEntrySetSafetyStockAction.svg]]  {
    action: String
    quantity: Integer
}
interface InventoryEntrySetSupplyChannelAction [[InventoryEntrySetSupplyChannelAction.svg]]  {
    action: String
    supplyChannel: [[ChannelResourceIdentifier.svg ChannelResourceIdentifier]]
}
interface InventoryEntryUpdate [[InventoryEntryUpdate.svg]]  {
    version: Long
    actions: [[InventoryEntryUpdateAction.svg List<InventoryEntryUpdateAction>]]
}
InventoryEntryUpdateAction --> InventoryEntryAddQuantityAction #blue;text:blue : "action : addQuantity"
InventoryEntryUpdateAction --> InventoryEntryChangeQuantityAction #blue;text:blue : "action : changeQuantity"
InventoryEntryUpdateAction --> InventoryEntryRemoveQuantityAction #blue;text:blue : "action : removeQuantity"
InventoryEntryUpdateAction --> InventoryEntrySetCustomFieldAction #blue;text:blue : "action : setCustomField"
InventoryEntryUpdateAction --> InventoryEntrySetCustomTypeAction #blue;text:blue : "action : setCustomType"
InventoryEntryUpdateAction --> InventoryEntrySetExpectedDeliveryAction #blue;text:blue : "action : setExpectedDelivery"
InventoryEntryUpdateAction --> InventoryEntrySetInventoryLimitsAction #blue;text:blue : "action : setInventoryLimits"
InventoryEntryUpdateAction --> InventoryEntrySetKeyAction #blue;text:blue : "action : setKey"
InventoryEntryUpdateAction --> InventoryEntrySetReorderPointAction #blue;text:blue : "action : setReorderPoint"
InventoryEntryUpdateAction --> InventoryEntrySetReservationExpirationInMinutesAction #blue;text:blue : "action : setReservationExpirationInMinutes"
InventoryEntryUpdateAction --> InventoryEntrySetRestockableInDaysAction #blue;text:blue : "action : setRestockableInDays"
InventoryEntryUpdateAction --> InventoryEntrySetSafetyStockAction #blue;text:blue : "action : setSafetyStock"
InventoryEntryUpdateAction --> InventoryEntrySetSupplyChannelAction #blue;text:blue : "action : setSupplyChannel"
InventoryEntryUpdateAction --> InventoryEntryUpdate #green;text:green : "actions"
@enduml
