@startuml

hide empty fields
hide empty methods
legend
|= |= line |
|<back:black>   </back>| inheritance |
|<back:green>   </back>| property reference |
|<back:blue>   </back>| discriminated class |
endlegend
interface Location [[Location.svg]]  {
    country: String
    state: String
}



interface Zone [[Zone.svg]]  {
    id: String
    version: Long
    createdAt: DateTime
    lastModifiedAt: DateTime
    lastModifiedBy: [[LastModifiedBy.svg LastModifiedBy]]
    createdBy: [[CreatedBy.svg CreatedBy]]
    key: String
    name: String
    description: String
    locations: [[Location.svg List<Location>]]
}
interface ZoneDraft [[ZoneDraft.svg]]  {
    key: String
    name: String
    description: String
    locations: [[Location.svg List<Location>]]
}
interface ZoneAddLocationAction [[ZoneAddLocationAction.svg]]  {
    action: String
    location: [[Location.svg Location]]
}
interface ZoneRemoveLocationAction [[ZoneRemoveLocationAction.svg]]  {
    action: String
    location: [[Location.svg Location]]
}

Location --> Zone #green;text:green : "locations"
Location --> ZoneDraft #green;text:green : "locations"
Location --> ZoneAddLocationAction #green;text:green : "location"
Location --> ZoneRemoveLocationAction #green;text:green : "location"
@enduml
