@startuml

hide empty fields
hide empty methods
legend
|= |= line |
|<back:black>   </back>| inheritance |
|<back:green>   </back>| property reference |
|<back:blue>   </back>| discriminated class |
endlegend
interface MyQuoteRequestUpdateAction [[MyQuoteRequestUpdateAction.svg]]  {
    action: String
}


interface MyQuoteRequestCancelAction [[MyQuoteRequestCancelAction.svg]]  {
    action: String
}
interface MyQuoteRequestUpdate [[MyQuoteRequestUpdate.svg]]  {
    version: Long
    actions: [[MyQuoteRequestUpdateAction.svg List<MyQuoteRequestUpdateAction>]]
}
MyQuoteRequestUpdateAction --> MyQuoteRequestCancelAction #blue;text:blue : "action : cancelQuoteRequest"
MyQuoteRequestUpdateAction --> MyQuoteRequestUpdate #green;text:green : "actions"
@enduml
