@startuml

hide methods
enum OrderState {
    OPEN
    CONFIRMED
    COMPLETE
    CANCELLED
}
interface OrderStateChangedMessage [[OrderStateChangedMessage.svg]]  {
    id: String
    version: Long
    createdAt: DateTime
    lastModifiedAt: DateTime
    lastModifiedBy: [[LastModifiedBy.svg LastModifiedBy]]
    createdBy: [[CreatedBy.svg CreatedBy]]
    sequenceNumber: Long
    resource: [[Reference.svg Reference]]
    resourceVersion: Long
    type: String
    resourceUserProvidedIdentifiers: [[UserProvidedIdentifiers.svg UserProvidedIdentifiers]]
    orderState: [[OrderState.svg OrderState]]
    oldOrderState: [[OrderState.svg OrderState]]
}
interface OrderStateChangedMessagePayload [[OrderStateChangedMessagePayload.svg]]  {
    type: String
    orderState: [[OrderState.svg OrderState]]
    oldOrderState: [[OrderState.svg OrderState]]
}
interface StagedOrderChangeOrderStateAction [[StagedOrderChangeOrderStateAction.svg]]  {
    action: String
    orderState: [[OrderState.svg OrderState]]
}
interface Order [[Order.svg]]  {
    id: String
    version: Long
    createdAt: DateTime
    lastModifiedAt: DateTime
    orderNumber: String
    purchaseOrderNumber: String
    customerId: String
    customerEmail: String
    customerGroup: [[CustomerGroupReference.svg CustomerGroupReference]]
    anonymousId: String
    businessUnit: [[BusinessUnitKeyReference.svg BusinessUnitKeyReference]]
    store: [[StoreKeyReference.svg StoreKeyReference]]
    lineItems: [[LineItem.svg List<LineItem>]]
    customLineItems: [[CustomLineItem.svg List<CustomLineItem>]]
    totalPrice: [[CentPrecisionMoney.svg CentPrecisionMoney]]
    taxedPrice: [[TaxedPrice.svg TaxedPrice]]
    taxedShippingPrice: [[TaxedPrice.svg TaxedPrice]]
    discountOnTotalPrice: [[DiscountOnTotalPrice.svg DiscountOnTotalPrice]]
    priceRoundingMode: [[RoundingMode.svg RoundingMode]]
    taxMode: [[TaxMode.svg TaxMode]]
    taxRoundingMode: [[RoundingMode.svg RoundingMode]]
    taxCalculationMode: [[TaxCalculationMode.svg TaxCalculationMode]]
    inventoryMode: [[InventoryMode.svg InventoryMode]]
    billingAddress: [[Address.svg Address]]
    shippingAddress: [[Address.svg Address]]
    shippingMode: [[ShippingMode.svg ShippingMode]]
    shippingKey: String
    shippingInfo: [[ShippingInfo.svg ShippingInfo]]
    shippingRateInput: [[ShippingRateInput.svg ShippingRateInput]]
    shippingCustomFields: [[CustomFields.svg CustomFields]]
    shipping: [[Shipping.svg List<Shipping>]]
    itemShippingAddresses: [[Address.svg List<Address>]]
    discountCodes: [[DiscountCodeInfo.svg List<DiscountCodeInfo>]]
    directDiscounts: [[DirectDiscount.svg List<DirectDiscount>]]
    directDiscountsIgnoreCartDiscounts: Boolean
    refusedGifts: [[CartDiscountReference.svg List<CartDiscountReference>]]
    paymentInfo: [[PaymentInfo.svg PaymentInfo]]
    country: String
    locale: String
    origin: [[CartOrigin.svg CartOrigin]]
    cart: [[CartReference.svg CartReference]]
    quote: [[QuoteReference.svg QuoteReference]]
    recurringOrder: [[RecurringOrderReference.svg RecurringOrderReference]]
    orderState: [[OrderState.svg OrderState]]
    shipmentState: [[ShipmentState.svg ShipmentState]]
    paymentState: [[PaymentState.svg PaymentState]]
    state: [[StateReference.svg StateReference]]
    syncInfo: [[SyncInfo.svg List<SyncInfo>]]
    returnInfo: [[ReturnInfo.svg List<ReturnInfo>]]
    discountTypeCombination: [[DiscountTypeCombination.svg DiscountTypeCombination]]
    lastMessageSequenceNumber: Long
    custom: [[CustomFields.svg CustomFields]]
    completedAt: DateTime
    lastModifiedBy: [[LastModifiedBy.svg LastModifiedBy]]
    createdBy: [[CreatedBy.svg CreatedBy]]
}
interface OrderFromCartDraft [[OrderFromCartDraft.svg]]  {
    id: String
    cart: [[CartResourceIdentifier.svg CartResourceIdentifier]]
    version: Long
    orderNumber: String
    purchaseOrderNumber: String
    paymentState: [[PaymentState.svg PaymentState]]
    shipmentState: [[ShipmentState.svg ShipmentState]]
    orderState: [[OrderState.svg OrderState]]
    state: [[StateResourceIdentifier.svg StateResourceIdentifier]]
    custom: [[CustomFieldsDraft.svg CustomFieldsDraft]]
}
interface OrderFromQuoteDraft [[OrderFromQuoteDraft.svg]]  {
    quote: [[QuoteResourceIdentifier.svg QuoteResourceIdentifier]]
    version: Long
    quoteStateToAccepted: Boolean
    orderNumber: String
    paymentState: [[PaymentState.svg PaymentState]]
    shipmentState: [[ShipmentState.svg ShipmentState]]
    orderState: [[OrderState.svg OrderState]]
    state: [[StateResourceIdentifier.svg StateResourceIdentifier]]
}
interface OrderImportDraft [[OrderImportDraft.svg]]  {
    orderNumber: String
    purchaseOrderNumber: String
    customerId: String
    customerEmail: String
    customerGroup: [[CustomerGroupResourceIdentifier.svg CustomerGroupResourceIdentifier]]
    businessUnit: [[BusinessUnitResourceIdentifier.svg BusinessUnitResourceIdentifier]]
    store: [[StoreResourceIdentifier.svg StoreResourceIdentifier]]
    lineItems: [[LineItemImportDraft.svg List<LineItemImportDraft>]]
    customLineItems: [[CustomLineItemImportDraft.svg List<CustomLineItemImportDraft>]]
    totalPrice: [[Money.svg Money]]
    taxedPrice: [[TaxedPriceDraft.svg TaxedPriceDraft]]
    priceRoundingMode: [[RoundingMode.svg RoundingMode]]
    taxRoundingMode: [[RoundingMode.svg RoundingMode]]
    taxCalculationMode: [[TaxCalculationMode.svg TaxCalculationMode]]
    inventoryMode: [[InventoryMode.svg InventoryMode]]
    billingAddress: [[BaseAddress.svg BaseAddress]]
    shippingAddress: [[BaseAddress.svg BaseAddress]]
    itemShippingAddresses: [[BaseAddress.svg List<BaseAddress>]]
    shippingInfo: [[ShippingInfoImportDraft.svg ShippingInfoImportDraft]]
    paymentInfo: [[PaymentInfo.svg PaymentInfo]]
    paymentState: [[PaymentState.svg PaymentState]]
    shipmentState: [[ShipmentState.svg ShipmentState]]
    orderState: [[OrderState.svg OrderState]]
    state: [[StateReference.svg StateReference]]
    country: String
    origin: [[CartOrigin.svg CartOrigin]]
    completedAt: DateTime
    custom: [[CustomFieldsDraft.svg CustomFieldsDraft]]
}
interface OrderChangeOrderStateAction [[OrderChangeOrderStateAction.svg]]  {
    action: String
    orderState: [[OrderState.svg OrderState]]
}
OrderState --> OrderStateChangedMessage #green;text:green : "orderState"
OrderState --> OrderStateChangedMessage #green;text:green : "oldOrderState"
OrderState --> OrderStateChangedMessagePayload #green;text:green : "orderState"
OrderState --> OrderStateChangedMessagePayload #green;text:green : "oldOrderState"
OrderState --> StagedOrderChangeOrderStateAction #green;text:green : "orderState"
OrderState --> Order #green;text:green : "orderState"
OrderState --> OrderFromCartDraft #green;text:green : "orderState"
OrderState --> OrderFromQuoteDraft #green;text:green : "orderState"
OrderState --> OrderImportDraft #green;text:green : "orderState"
OrderState --> OrderChangeOrderStateAction #green;text:green : "orderState"
@enduml
