@startuml

hide empty fields
hide empty methods
legend
|= |= line |
|<back:black>   </back>| inheritance |
|<back:green>   </back>| property reference |
|<back:blue>   </back>| discriminated class |
endlegend
interface ParcelMeasurements [[ParcelMeasurements.svg]]  {
    heightInMillimeter: Integer
    lengthInMillimeter: Integer
    widthInMillimeter: Integer
    weightInGram: Integer
}



interface ParcelMeasurementsUpdatedMessage [[ParcelMeasurementsUpdatedMessage.svg]]  {
    id: String
    version: Long
    createdAt: DateTime
    lastModifiedAt: DateTime
    lastModifiedBy: [[LastModifiedBy.svg LastModifiedBy]]
    createdBy: [[CreatedBy.svg CreatedBy]]
    sequenceNumber: Long
    resource: [[Reference.svg Reference]]
    resourceVersion: Long
    type: String
    resourceUserProvidedIdentifiers: [[UserProvidedIdentifiers.svg UserProvidedIdentifiers]]
    deliveryId: String
    parcelId: String
    measurements: [[ParcelMeasurements.svg ParcelMeasurements]]
    shippingKey: String
}
interface ParcelMeasurementsUpdatedMessagePayload [[ParcelMeasurementsUpdatedMessagePayload.svg]]  {
    type: String
    deliveryId: String
    parcelId: String
    measurements: [[ParcelMeasurements.svg ParcelMeasurements]]
    shippingKey: String
}
interface StagedOrderAddParcelToDeliveryAction [[StagedOrderAddParcelToDeliveryAction.svg]]  {
    action: String
    deliveryId: String
    deliveryKey: String
    parcelKey: String
    measurements: [[ParcelMeasurements.svg ParcelMeasurements]]
    trackingData: [[TrackingData.svg TrackingData]]
    items: [[DeliveryItem.svg List<DeliveryItem>]]
    custom: [[CustomFieldsDraft.svg CustomFieldsDraft]]
}
interface StagedOrderSetParcelMeasurementsAction [[StagedOrderSetParcelMeasurementsAction.svg]]  {
    action: String
    parcelId: String
    parcelKey: String
    measurements: [[ParcelMeasurements.svg ParcelMeasurements]]
}
interface Parcel [[Parcel.svg]]  {
    id: String
    key: String
    createdAt: DateTime
    measurements: [[ParcelMeasurements.svg ParcelMeasurements]]
    trackingData: [[TrackingData.svg TrackingData]]
    items: [[DeliveryItem.svg List<DeliveryItem>]]
    custom: [[CustomFields.svg CustomFields]]
}
interface ParcelDraft [[ParcelDraft.svg]]  {
    key: String
    measurements: [[ParcelMeasurements.svg ParcelMeasurements]]
    trackingData: [[TrackingData.svg TrackingData]]
    items: [[DeliveryItem.svg List<DeliveryItem>]]
    custom: [[CustomFieldsDraft.svg CustomFieldsDraft]]
}
interface OrderAddParcelToDeliveryAction [[OrderAddParcelToDeliveryAction.svg]]  {
    action: String
    deliveryId: String
    deliveryKey: String
    parcelKey: String
    measurements: [[ParcelMeasurements.svg ParcelMeasurements]]
    trackingData: [[TrackingData.svg TrackingData]]
    items: [[DeliveryItem.svg List<DeliveryItem>]]
    custom: [[CustomFieldsDraft.svg CustomFieldsDraft]]
}
interface OrderSetParcelMeasurementsAction [[OrderSetParcelMeasurementsAction.svg]]  {
    action: String
    parcelId: String
    parcelKey: String
    measurements: [[ParcelMeasurements.svg ParcelMeasurements]]
}

ParcelMeasurements --> ParcelMeasurementsUpdatedMessage #green;text:green : "measurements"
ParcelMeasurements --> ParcelMeasurementsUpdatedMessagePayload #green;text:green : "measurements"
ParcelMeasurements --> StagedOrderAddParcelToDeliveryAction #green;text:green : "measurements"
ParcelMeasurements --> StagedOrderSetParcelMeasurementsAction #green;text:green : "measurements"
ParcelMeasurements --> Parcel #green;text:green : "measurements"
ParcelMeasurements --> ParcelDraft #green;text:green : "measurements"
ParcelMeasurements --> OrderAddParcelToDeliveryAction #green;text:green : "measurements"
ParcelMeasurements --> OrderSetParcelMeasurementsAction #green;text:green : "measurements"
@enduml
