@startuml

hide methods
enum ProductSearchFacetEnumScope {
    ALL
    QUERY
}
interface ProductSearchFacetCountValue [[ProductSearchFacetCountValue.svg]]  {
    name: String
    scope: [[ProductSearchFacetEnumScope.svg ProductSearchFacetEnumScope]]
    filter: [[SearchQuery.svg SearchQuery]]
    level: [[ProductSearchFacetEnumCountLevel.svg ProductSearchFacetEnumCountLevel]]
}
interface ProductSearchFacetDistinctValue [[ProductSearchFacetDistinctValue.svg]]  {
    name: String
    scope: [[ProductSearchFacetEnumScope.svg ProductSearchFacetEnumScope]]
    filter: [[SearchQuery.svg SearchQuery]]
    level: [[ProductSearchFacetEnumCountLevel.svg ProductSearchFacetEnumCountLevel]]
    field: String
    includes: [[String.svg List<String>]]
    sort: [[ProductSearchFacetDistinctBucketSortExpression.svg ProductSearchFacetDistinctBucketSortExpression]]
    limit: Integer
    language: String
    fieldType: [[SearchFieldType.svg SearchFieldType]]
    missing: String
}
interface ProductSearchFacetRangesValue [[ProductSearchFacetRangesValue.svg]]  {
    name: String
    scope: [[ProductSearchFacetEnumScope.svg ProductSearchFacetEnumScope]]
    filter: [[SearchQuery.svg SearchQuery]]
    level: [[ProductSearchFacetEnumCountLevel.svg ProductSearchFacetEnumCountLevel]]
    field: String
    ranges: [[ProductSearchFacetRangesFacetRange.svg List<ProductSearchFacetRangesFacetRange>]]
    language: String
    fieldType: [[SearchFieldType.svg SearchFieldType]]
}
ProductSearchFacetEnumScope --> ProductSearchFacetCountValue #green;text:green : "scope"
ProductSearchFacetEnumScope --> ProductSearchFacetDistinctValue #green;text:green : "scope"
ProductSearchFacetEnumScope --> ProductSearchFacetRangesValue #green;text:green : "scope"
@enduml
