@startuml

hide empty fields
hide empty methods
legend
|= |= line |
|<back:black>   </back>| inheritance |
|<back:green>   </back>| property reference |
|<back:blue>   </back>| discriminated class |
endlegend
interface ProductSelectionResourceIdentifier [[ProductSelectionResourceIdentifier.svg]] extends ResourceIdentifier {
    typeId: [[ReferenceTypeId.svg ReferenceTypeId]]
    id: String
    key: String
}
interface ResourceIdentifier [[ResourceIdentifier.svg]]  {
    typeId: [[ReferenceTypeId.svg ReferenceTypeId]]
    id: String
    key: String
}

interface ProductSelectionResourceIdentifier [[ProductSelectionResourceIdentifier.svg]]  {
    typeId: [[ReferenceTypeId.svg ReferenceTypeId]]
    id: String
    key: String
}
interface ProductSelectionSettingDraft [[ProductSelectionSettingDraft.svg]]  {
    productSelection: [[ProductSelectionResourceIdentifier.svg ProductSelectionResourceIdentifier]]
    active: Boolean
}
interface StoreAddProductSelectionAction [[StoreAddProductSelectionAction.svg]]  {
    action: String
    productSelection: [[ProductSelectionResourceIdentifier.svg ProductSelectionResourceIdentifier]]
    active: Boolean
}
interface StoreChangeProductSelectionAction [[StoreChangeProductSelectionAction.svg]]  {
    action: String
    productSelection: [[ProductSelectionResourceIdentifier.svg ProductSelectionResourceIdentifier]]
    active: Boolean
}
interface StoreRemoveProductSelectionAction [[StoreRemoveProductSelectionAction.svg]]  {
    action: String
    productSelection: [[ProductSelectionResourceIdentifier.svg ProductSelectionResourceIdentifier]]
}
ProductSelectionResourceIdentifier --> ProductSelectionResourceIdentifier #blue;text:blue : "typeId : product-selection"
ProductSelectionResourceIdentifier --> ProductSelectionSettingDraft #green;text:green : "productSelection"
ProductSelectionResourceIdentifier --> StoreAddProductSelectionAction #green;text:green : "productSelection"
ProductSelectionResourceIdentifier --> StoreChangeProductSelectionAction #green;text:green : "productSelection"
ProductSelectionResourceIdentifier --> StoreRemoveProductSelectionAction #green;text:green : "productSelection"
@enduml
