@startuml

hide empty fields
hide empty methods
legend
|= |= line |
|<back:black>   </back>| inheritance |
|<back:green>   </back>| property reference |
|<back:blue>   </back>| discriminated class |
endlegend
interface RecurrencePolicy [[RecurrencePolicy.svg]] extends BaseResource {
    id: String
    version: Long
    createdAt: DateTime
    lastModifiedAt: DateTime
    key: String
    name: [[LocalizedString.svg LocalizedString]]
    description: [[LocalizedString.svg LocalizedString]]
    schedule: [[RecurrencePolicySchedule.svg RecurrencePolicySchedule]]
    createdBy: [[CreatedBy.svg CreatedBy]]
    lastModifiedBy: [[LastModifiedBy.svg LastModifiedBy]]
}
interface BaseResource [[BaseResource.svg]]  {
    id: String
    version: Long
    createdAt: DateTime
    lastModifiedAt: DateTime
}


interface RecurrencePolicyPagedQueryResponse [[RecurrencePolicyPagedQueryResponse.svg]]  {
    limit: Long
    offset: Long
    count: Long
    total: Long
    results: [[RecurrencePolicy.svg List<RecurrencePolicy>]]
}
interface RecurrencePolicyReference [[RecurrencePolicyReference.svg]]  {
    typeId: [[ReferenceTypeId.svg ReferenceTypeId]]
    id: String
    obj: [[RecurrencePolicy.svg RecurrencePolicy]]
}

RecurrencePolicy --> RecurrencePolicyPagedQueryResponse #green;text:green : "results"
RecurrencePolicy --> RecurrencePolicyReference #green;text:green : "obj"
@enduml
