@startuml

hide empty fields
hide empty methods
legend
|= |= line |
|<back:black>   </back>| inheritance |
|<back:green>   </back>| property reference |
|<back:blue>   </back>| discriminated class |
endlegend
interface RecurringOrderScopeDraft [[RecurringOrderScopeDraft.svg]]  {
    type: String
}


interface AnyOrderDraft [[AnyOrderDraft.svg]]  {
    type: String
}
interface ApplicableRecurrencePoliciesDraft [[ApplicableRecurrencePoliciesDraft.svg]]  {
    type: String
    recurrencePolicies: [[RecurrencePolicyResourceIdentifier.svg List<RecurrencePolicyResourceIdentifier>]]
}
interface NonRecurringOrdersOnlyDraft [[NonRecurringOrdersOnlyDraft.svg]]  {
    type: String
}
interface RecurringOrdersOnlyDraft [[RecurringOrdersOnlyDraft.svg]]  {
    type: String
}
interface CartDiscountDraft [[CartDiscountDraft.svg]]  {
    name: [[LocalizedString.svg LocalizedString]]
    key: String
    description: [[LocalizedString.svg LocalizedString]]
    value: [[CartDiscountValueDraft.svg CartDiscountValueDraft]]
    cartPredicate: String
    target: [[CartDiscountTarget.svg CartDiscountTarget]]
    sortOrder: String
    stores: [[StoreResourceIdentifier.svg List<StoreResourceIdentifier>]]
    isActive: Boolean
    validFrom: DateTime
    validUntil: DateTime
    requiresDiscountCode: Boolean
    stackingMode: [[StackingMode.svg StackingMode]]
    custom: [[CustomFieldsDraft.svg CustomFieldsDraft]]
    discountGroup: [[DiscountGroupResourceIdentifier.svg DiscountGroupResourceIdentifier]]
    recurringOrderScope: [[RecurringOrderScopeDraft.svg RecurringOrderScopeDraft]]
}
interface CartDiscountSetRecurringOrderScopeAction [[CartDiscountSetRecurringOrderScopeAction.svg]]  {
    action: String
    recurringOrderScope: [[RecurringOrderScopeDraft.svg RecurringOrderScopeDraft]]
}
RecurringOrderScopeDraft --> AnyOrderDraft #blue;text:blue : "type : AnyOrder"
RecurringOrderScopeDraft --> ApplicableRecurrencePoliciesDraft #blue;text:blue : "type : ApplicableRecurrencePolicies"
RecurringOrderScopeDraft --> NonRecurringOrdersOnlyDraft #blue;text:blue : "type : NonRecurringOrdersOnly"
RecurringOrderScopeDraft --> RecurringOrdersOnlyDraft #blue;text:blue : "type : RecurringOrdersOnly"
RecurringOrderScopeDraft --> CartDiscountDraft #green;text:green : "recurringOrderScope"
RecurringOrderScopeDraft --> CartDiscountSetRecurringOrderScopeAction #green;text:green : "recurringOrderScope"
@enduml
