@startuml

hide empty fields
hide empty methods
legend
|= |= line |
|<back:black>   </back>| inheritance |
|<back:green>   </back>| property reference |
|<back:blue>   </back>| discriminated class |
endlegend
interface ReturnItem [[ReturnItem.svg]]  {
    id: String
    key: String
    quantity: Long
    type: String
    comment: String
    shipmentState: [[ReturnShipmentState.svg ReturnShipmentState]]
    paymentState: [[ReturnPaymentState.svg ReturnPaymentState]]
    custom: [[CustomFields.svg CustomFields]]
    lastModifiedAt: DateTime
    createdAt: DateTime
}


interface CustomLineItemReturnItem [[CustomLineItemReturnItem.svg]]  {
    id: String
    key: String
    quantity: Long
    type: String
    comment: String
    shipmentState: [[ReturnShipmentState.svg ReturnShipmentState]]
    paymentState: [[ReturnPaymentState.svg ReturnPaymentState]]
    custom: [[CustomFields.svg CustomFields]]
    lastModifiedAt: DateTime
    createdAt: DateTime
    customLineItemId: String
}
interface LineItemReturnItem [[LineItemReturnItem.svg]]  {
    id: String
    key: String
    quantity: Long
    type: String
    comment: String
    shipmentState: [[ReturnShipmentState.svg ReturnShipmentState]]
    paymentState: [[ReturnPaymentState.svg ReturnPaymentState]]
    custom: [[CustomFields.svg CustomFields]]
    lastModifiedAt: DateTime
    createdAt: DateTime
    lineItemId: String
}
interface ReturnInfo [[ReturnInfo.svg]]  {
    items: [[ReturnItem.svg List<ReturnItem>]]
    returnTrackingId: String
    returnDate: DateTime
}
ReturnItem --> CustomLineItemReturnItem #blue;text:blue : "type : CustomLineItemReturnItem"
ReturnItem --> LineItemReturnItem #blue;text:blue : "type : LineItemReturnItem"
ReturnItem --> ReturnInfo #green;text:green : "items"
@enduml
