@startuml

hide empty fields
hide empty methods
legend
|= |= line |
|<back:black>   </back>| inheritance |
|<back:green>   </back>| property reference |
|<back:blue>   </back>| discriminated class |
endlegend
interface ReviewUpdateAction [[ReviewUpdateAction.svg]]  {
    action: String
}


interface ReviewSetAuthorNameAction [[ReviewSetAuthorNameAction.svg]]  {
    action: String
    authorName: String
}
interface ReviewSetCustomFieldAction [[ReviewSetCustomFieldAction.svg]]  {
    action: String
    name: String
    value: [[Object.svg Object]]
}
interface ReviewSetCustomTypeAction [[ReviewSetCustomTypeAction.svg]]  {
    action: String
    type: [[TypeResourceIdentifier.svg TypeResourceIdentifier]]
    fields: [[FieldContainer.svg FieldContainer]]
}
interface ReviewSetCustomerAction [[ReviewSetCustomerAction.svg]]  {
    action: String
    customer: [[CustomerResourceIdentifier.svg CustomerResourceIdentifier]]
}
interface ReviewSetKeyAction [[ReviewSetKeyAction.svg]]  {
    action: String
    key: String
}
interface ReviewSetLocaleAction [[ReviewSetLocaleAction.svg]]  {
    action: String
    locale: String
}
interface ReviewSetRatingAction [[ReviewSetRatingAction.svg]]  {
    action: String
    rating: Integer
}
interface ReviewSetTargetAction [[ReviewSetTargetAction.svg]]  {
    action: String
    target: [[Object.svg Object]]
}
interface ReviewSetTextAction [[ReviewSetTextAction.svg]]  {
    action: String
    text: String
}
interface ReviewSetTitleAction [[ReviewSetTitleAction.svg]]  {
    action: String
    title: String
}
interface ReviewTransitionStateAction [[ReviewTransitionStateAction.svg]]  {
    action: String
    state: [[StateResourceIdentifier.svg StateResourceIdentifier]]
    force: Boolean
}
interface ReviewUpdate [[ReviewUpdate.svg]]  {
    version: Long
    actions: [[ReviewUpdateAction.svg List<ReviewUpdateAction>]]
}
ReviewUpdateAction --> ReviewSetAuthorNameAction #blue;text:blue : "action : setAuthorName"
ReviewUpdateAction --> ReviewSetCustomFieldAction #blue;text:blue : "action : setCustomField"
ReviewUpdateAction --> ReviewSetCustomTypeAction #blue;text:blue : "action : setCustomType"
ReviewUpdateAction --> ReviewSetCustomerAction #blue;text:blue : "action : setCustomer"
ReviewUpdateAction --> ReviewSetKeyAction #blue;text:blue : "action : setKey"
ReviewUpdateAction --> ReviewSetLocaleAction #blue;text:blue : "action : setLocale"
ReviewUpdateAction --> ReviewSetRatingAction #blue;text:blue : "action : setRating"
ReviewUpdateAction --> ReviewSetTargetAction #blue;text:blue : "action : setTarget"
ReviewUpdateAction --> ReviewSetTextAction #blue;text:blue : "action : setText"
ReviewUpdateAction --> ReviewSetTitleAction #blue;text:blue : "action : setTitle"
ReviewUpdateAction --> ReviewTransitionStateAction #blue;text:blue : "action : transitionState"
ReviewUpdateAction --> ReviewUpdate #green;text:green : "actions"
@enduml
