@startuml

hide empty fields
hide empty methods
legend
|= |= line |
|<back:black>   </back>| inheritance |
|<back:green>   </back>| property reference |
|<back:blue>   </back>| discriminated class |
endlegend
interface ShippingRate [[ShippingRate.svg]]  {
    price: [[CentPrecisionMoney.svg CentPrecisionMoney]]
    freeAbove: [[CentPrecisionMoney.svg CentPrecisionMoney]]
    isMatching: Boolean
    tiers: [[ShippingRatePriceTier.svg List<ShippingRatePriceTier>]]
}



interface ZoneRate [[ZoneRate.svg]]  {
    zone: [[ZoneReference.svg ZoneReference]]
    shippingRates: [[ShippingRate.svg List<ShippingRate>]]
}
interface ShippingInfo [[ShippingInfo.svg]]  {
    shippingMethodName: String
    price: [[CentPrecisionMoney.svg CentPrecisionMoney]]
    shippingRate: [[ShippingRate.svg ShippingRate]]
    taxedPrice: [[TaxedItemPrice.svg TaxedItemPrice]]
    taxRate: [[TaxRate.svg TaxRate]]
    taxCategory: [[TaxCategoryReference.svg TaxCategoryReference]]
    shippingMethod: [[ShippingMethodReference.svg ShippingMethodReference]]
    deliveries: [[Delivery.svg List<Delivery>]]
    discountedPrice: [[DiscountedLineItemPrice.svg DiscountedLineItemPrice]]
    shippingMethodState: [[ShippingMethodState.svg ShippingMethodState]]
    estimatedDelivery: [[EstimatedDelivery.svg EstimatedDelivery]]
}

ShippingRate --> ZoneRate #green;text:green : "shippingRates"
ShippingRate --> ShippingInfo #green;text:green : "shippingRate"
@enduml
