@startuml

hide empty fields
hide empty methods
legend
|= |= line |
|<back:black>   </back>| inheritance |
|<back:green>   </back>| property reference |
|<back:blue>   </back>| discriminated class |
endlegend
interface StagedQuote [[StagedQuote.svg]] extends BaseResource {
    id: String
    version: Long
    createdAt: DateTime
    lastModifiedAt: DateTime
    key: String
    lastModifiedBy: [[LastModifiedBy.svg LastModifiedBy]]
    createdBy: [[CreatedBy.svg CreatedBy]]
    stagedQuoteState: [[StagedQuoteState.svg StagedQuoteState]]
    customer: [[CustomerReference.svg CustomerReference]]
    quoteRequest: [[QuoteRequestReference.svg QuoteRequestReference]]
    quotationCart: [[CartReference.svg CartReference]]
    validTo: DateTime
    sellerComment: String
    custom: [[CustomFields.svg CustomFields]]
    state: [[StateReference.svg StateReference]]
    purchaseOrderNumber: String
    businessUnit: [[BusinessUnitKeyReference.svg BusinessUnitKeyReference]]
    store: [[StoreKeyReference.svg StoreKeyReference]]
}
interface BaseResource [[BaseResource.svg]]  {
    id: String
    version: Long
    createdAt: DateTime
    lastModifiedAt: DateTime
}


interface StagedQuotePagedQueryResponse [[StagedQuotePagedQueryResponse.svg]]  {
    limit: Long
    offset: Long
    count: Long
    total: Long
    results: [[StagedQuote.svg List<StagedQuote>]]
}
interface StagedQuoteCreatedMessage [[StagedQuoteCreatedMessage.svg]]  {
    id: String
    version: Long
    createdAt: DateTime
    lastModifiedAt: DateTime
    lastModifiedBy: [[LastModifiedBy.svg LastModifiedBy]]
    createdBy: [[CreatedBy.svg CreatedBy]]
    sequenceNumber: Long
    resource: [[Reference.svg Reference]]
    resourceVersion: Long
    type: String
    resourceUserProvidedIdentifiers: [[UserProvidedIdentifiers.svg UserProvidedIdentifiers]]
    stagedQuote: [[StagedQuote.svg StagedQuote]]
}
interface StagedQuoteCreatedMessagePayload [[StagedQuoteCreatedMessagePayload.svg]]  {
    type: String
    stagedQuote: [[StagedQuote.svg StagedQuote]]
}
interface StagedQuoteReference [[StagedQuoteReference.svg]]  {
    typeId: [[ReferenceTypeId.svg ReferenceTypeId]]
    id: String
    obj: [[StagedQuote.svg StagedQuote]]
}

StagedQuote --> StagedQuotePagedQueryResponse #green;text:green : "results"
StagedQuote --> StagedQuoteCreatedMessage #green;text:green : "stagedQuote"
StagedQuote --> StagedQuoteCreatedMessagePayload #green;text:green : "stagedQuote"
StagedQuote --> StagedQuoteReference #green;text:green : "obj"
@enduml
