@startuml

hide empty fields
hide empty methods
legend
|= |= line |
|<back:black>   </back>| inheritance |
|<back:green>   </back>| property reference |
|<back:blue>   </back>| discriminated class |
endlegend
interface VariantUpdateAction [[VariantUpdateAction.svg]]  {
    action: String
}


interface VariantAddAssetAction [[VariantAddAssetAction.svg]]  {
    action: String
    staged: Boolean
    asset: [[AssetDraft.svg AssetDraft]]
    position: Integer
}
interface VariantAddExternalImageAction [[VariantAddExternalImageAction.svg]]  {
    action: String
    image: [[Image.svg Image]]
    staged: Boolean
}
interface VariantChangeAssetNameAction [[VariantChangeAssetNameAction.svg]]  {
    action: String
    staged: Boolean
    assetId: String
    assetKey: String
    name: [[LocalizedString.svg LocalizedString]]
}
interface VariantChangeAssetOrderAction [[VariantChangeAssetOrderAction.svg]]  {
    action: String
    staged: Boolean
    assetOrder: [[String.svg List<String>]]
}
interface VariantMoveImageToPositionAction [[VariantMoveImageToPositionAction.svg]]  {
    action: String
    imageUrl: String
    position: Long
    staged: Boolean
}
interface VariantPublishAction [[VariantPublishAction.svg]]  {
    action: String
}
interface VariantRemoveAssetAction [[VariantRemoveAssetAction.svg]]  {
    action: String
    staged: Boolean
    assetId: String
    assetKey: String
}
interface VariantRemoveImageAction [[VariantRemoveImageAction.svg]]  {
    action: String
    imageUrl: String
    staged: Boolean
}
interface VariantRemoveStagedChangesAction [[VariantRemoveStagedChangesAction.svg]]  {
    action: String
}
interface VariantSetAssetCustomFieldAction [[VariantSetAssetCustomFieldAction.svg]]  {
    action: String
    staged: Boolean
    assetId: String
    assetKey: String
    name: String
    value: [[Object.svg Object]]
}
interface VariantSetAssetCustomTypeAction [[VariantSetAssetCustomTypeAction.svg]]  {
    action: String
    staged: Boolean
    assetId: String
    assetKey: String
    type: [[TypeResourceIdentifier.svg TypeResourceIdentifier]]
    fields: [[FieldContainer.svg FieldContainer]]
}
interface VariantSetAssetDescriptionAction [[VariantSetAssetDescriptionAction.svg]]  {
    action: String
    staged: Boolean
    assetId: String
    assetKey: String
    description: [[LocalizedString.svg LocalizedString]]
}
interface VariantSetAssetKeyAction [[VariantSetAssetKeyAction.svg]]  {
    action: String
    staged: Boolean
    assetId: String
    assetKey: String
}
interface VariantSetAssetSourcesAction [[VariantSetAssetSourcesAction.svg]]  {
    action: String
    staged: Boolean
    assetId: String
    assetKey: String
    sources: [[AssetSource.svg List<AssetSource>]]
}
interface VariantSetAssetTagsAction [[VariantSetAssetTagsAction.svg]]  {
    action: String
    staged: Boolean
    assetId: String
    assetKey: String
    tags: [[String.svg List<String>]]
}
interface VariantSetAssetsAction [[VariantSetAssetsAction.svg]]  {
    action: String
    assets: [[AssetDraft.svg List<AssetDraft>]]
    staged: Boolean
}
interface VariantSetAttributeAction [[VariantSetAttributeAction.svg]]  {
    action: String
    name: String
    value: [[Object.svg Object]]
    staged: Boolean
}
interface VariantSetAttributesAction [[VariantSetAttributesAction.svg]]  {
    action: String
    attributes: [[Attribute.svg List<Attribute>]]
    staged: Boolean
}
interface VariantSetImageLabelAction [[VariantSetImageLabelAction.svg]]  {
    action: String
    imageUrl: String
    label: String
    staged: Boolean
}
interface VariantSetImagesAction [[VariantSetImagesAction.svg]]  {
    action: String
    images: [[Image.svg List<Image>]]
    staged: Boolean
}
interface VariantSetKeyAction [[VariantSetKeyAction.svg]]  {
    action: String
    key: String
}
interface VariantSetSkuAction [[VariantSetSkuAction.svg]]  {
    action: String
    sku: String
    staged: Boolean
}
interface VariantUnpublishAction [[VariantUnpublishAction.svg]]  {
    action: String
}
interface VariantBulkUpdate [[VariantBulkUpdate.svg]]  {
    items: [[VariantBulkUpdateItem.svg List<VariantBulkUpdateItem>]]
    actions: [[VariantUpdateAction.svg List<VariantUpdateAction>]]
}
interface VariantUpdate [[VariantUpdate.svg]]  {
    version: Long
    actions: [[VariantUpdateAction.svg List<VariantUpdateAction>]]
}
VariantUpdateAction --> VariantAddAssetAction #blue;text:blue : "action : addAsset"
VariantUpdateAction --> VariantAddExternalImageAction #blue;text:blue : "action : addExternalImage"
VariantUpdateAction --> VariantChangeAssetNameAction #blue;text:blue : "action : changeAssetName"
VariantUpdateAction --> VariantChangeAssetOrderAction #blue;text:blue : "action : changeAssetOrder"
VariantUpdateAction --> VariantMoveImageToPositionAction #blue;text:blue : "action : moveImageToPosition"
VariantUpdateAction --> VariantPublishAction #blue;text:blue : "action : publish"
VariantUpdateAction --> VariantRemoveAssetAction #blue;text:blue : "action : removeAsset"
VariantUpdateAction --> VariantRemoveImageAction #blue;text:blue : "action : removeImage"
VariantUpdateAction --> VariantRemoveStagedChangesAction #blue;text:blue : "action : removeStagedChanges"
VariantUpdateAction --> VariantSetAssetCustomFieldAction #blue;text:blue : "action : setAssetCustomField"
VariantUpdateAction --> VariantSetAssetCustomTypeAction #blue;text:blue : "action : setAssetCustomType"
VariantUpdateAction --> VariantSetAssetDescriptionAction #blue;text:blue : "action : setAssetDescription"
VariantUpdateAction --> VariantSetAssetKeyAction #blue;text:blue : "action : setAssetKey"
VariantUpdateAction --> VariantSetAssetSourcesAction #blue;text:blue : "action : setAssetSources"
VariantUpdateAction --> VariantSetAssetTagsAction #blue;text:blue : "action : setAssetTags"
VariantUpdateAction --> VariantSetAssetsAction #blue;text:blue : "action : setAssets"
VariantUpdateAction --> VariantSetAttributeAction #blue;text:blue : "action : setAttribute"
VariantUpdateAction --> VariantSetAttributesAction #blue;text:blue : "action : setAttributes"
VariantUpdateAction --> VariantSetImageLabelAction #blue;text:blue : "action : setImageLabel"
VariantUpdateAction --> VariantSetImagesAction #blue;text:blue : "action : setImages"
VariantUpdateAction --> VariantSetKeyAction #blue;text:blue : "action : setKey"
VariantUpdateAction --> VariantSetSkuAction #blue;text:blue : "action : setSku"
VariantUpdateAction --> VariantUnpublishAction #blue;text:blue : "action : unpublish"
VariantUpdateAction --> VariantBulkUpdate #green;text:green : "actions"
VariantUpdateAction --> VariantUpdate #green;text:green : "actions"
@enduml
