@startuml

hide empty fields
hide empty methods
legend
|= |= line |
|<back:black>   </back>| inheritance |
|<back:green>   </back>| property reference |
|<back:blue>   </back>| discriminated class |
endlegend
interface Zone [[Zone.svg]] extends BaseResource {
    id: String
    version: Long
    createdAt: DateTime
    lastModifiedAt: DateTime
    lastModifiedBy: [[LastModifiedBy.svg LastModifiedBy]]
    createdBy: [[CreatedBy.svg CreatedBy]]
    key: String
    name: String
    description: String
    locations: [[Location.svg List<Location>]]
}
interface BaseResource [[BaseResource.svg]]  {
    id: String
    version: Long
    createdAt: DateTime
    lastModifiedAt: DateTime
}


interface ZonePagedQueryResponse [[ZonePagedQueryResponse.svg]]  {
    limit: Long
    offset: Long
    count: Long
    total: Long
    results: [[Zone.svg List<Zone>]]
}
interface ZoneReference [[ZoneReference.svg]]  {
    typeId: [[ReferenceTypeId.svg ReferenceTypeId]]
    id: String
    obj: [[Zone.svg Zone]]
}

Zone --> ZonePagedQueryResponse #green;text:green : "results"
Zone --> ZoneReference #green;text:green : "obj"
@enduml
