@startuml

hide empty fields
hide empty methods
legend
|= |= line |
|<back:black>   </back>| inheritance |
|<back:green>   </back>| property reference |
|<back:blue>   </back>| discriminated class |
endlegend
interface ZoneUpdateAction [[ZoneUpdateAction.svg]]  {
    action: String
}


interface ZoneAddLocationAction [[ZoneAddLocationAction.svg]]  {
    action: String
    location: [[Location.svg Location]]
}
interface ZoneChangeNameAction [[ZoneChangeNameAction.svg]]  {
    action: String
    name: String
}
interface ZoneRemoveLocationAction [[ZoneRemoveLocationAction.svg]]  {
    action: String
    location: [[Location.svg Location]]
}
interface ZoneSetDescriptionAction [[ZoneSetDescriptionAction.svg]]  {
    action: String
    description: String
}
interface ZoneSetKeyAction [[ZoneSetKeyAction.svg]]  {
    action: String
    key: String
}
interface ZoneUpdate [[ZoneUpdate.svg]]  {
    version: Long
    actions: [[ZoneUpdateAction.svg List<ZoneUpdateAction>]]
}
ZoneUpdateAction --> ZoneAddLocationAction #blue;text:blue : "action : addLocation"
ZoneUpdateAction --> ZoneChangeNameAction #blue;text:blue : "action : changeName"
ZoneUpdateAction --> ZoneRemoveLocationAction #blue;text:blue : "action : removeLocation"
ZoneUpdateAction --> ZoneSetDescriptionAction #blue;text:blue : "action : setDescription"
ZoneUpdateAction --> ZoneSetKeyAction #blue;text:blue : "action : setKey"
ZoneUpdateAction --> ZoneUpdate #green;text:green : "actions"
@enduml
